<svg xmlns="http://www.w3.org/2000/svg" width="18" height="24" viewBox="0 0 18 24">
  <path fill="#C9C9C9" d="M0.740724954,4.92377266 C0.740724954,4.92377266 0.308584379,4.58447218 0.238679286,3.91772452 C0.400732002,3.25097688 1.63995865,2.47289295 1.63995865,2.47289295 C0.578672238,2.36494334 1.27000637,1.93504985 0.925020198,1.78413205 C0.578672238,1.63427258 1.06324163,1.05346129 0.855115108,0.859363641 C0.648577332,0.66674765 1.06324163,0 1.06324163,0 C1.27000637,0.408938561 2.44545597,0 2.90778284,0 C3.36874792,0 4.31405543,0.472650002 4.31405543,0.472650002 C3.18445267,1.46239985 3.23529274,3.83326982 3.23529274,3.83326982 C6.0696265,3.05984255 7.79523827,1.37646348 7.79523827,1.37646348 C8.34812399,1.61204765 8.92484104,2.19307061 8.92484104,2.19307061 C9.24713073,2.73091371 9.93846487,3.87031138 10.1005176,4.72967501 C10.2609815,5.59052032 11.1379727,5.61126357 11.1379727,5.61126357 C10.9997513,6.16984992 10.4452768,5.74016812 9.9845387,6.21281813 C9.52380059,6.68716145 9.13137881,5.93426577 8.92484104,6.42914067 C8.71671449,6.92253396 8.02538038,6.72991795 8.02538038,6.72991795 C8.09369671,6.0409454 7.47249462,5.48235901 7.47249462,5.48235901 C6.24597799,6.46025559 6.00289892,8.07230322 5.95841387,8.50960502 C5.55645957,8.77334076 4.6365721,9.27414234 3.49425934,9.27414234 C3.81995351,9.21635752 4.05667759,9.10671457 4.18377776,8.94817681 C4.29816791,8.8059373 4.31882167,8.6296196 4.24097282,8.4370036 C4.15994647,8.23401598 3.96929622,8.12119807 3.7214509,8.13178135 C3.35104468,8.14511632 2.87782351,8.43382864 2.58231562,8.95558513 C2.49493425,8.52442162 2.2754595,8.27084587 2.07686548,8.17326788 C1.95135407,8.11230808 1.82584265,8.10659311 1.73369502,8.15993292 C1.61136111,8.22808934 1.55575479,8.34365893 1.57799732,8.48145345 C1.60341735,8.64443621 1.73369502,8.82816222 1.91481277,8.98225502 C1.5255685,8.78223073 1.28248942,8.46515516 1.17604303,8.30069076 L1.17763179,8.29920908 C0.925020198,7.28850433 0.740724954,4.92377266 0.740724954,4.92377266 Z M4.09321889,8.48881944 C4.15041395,8.63402224 4.13770394,8.7584818 4.05667759,8.85923478 C3.87397107,9.08741064 3.35104468,9.19853527 2.64904321,9.16297538 C2.90778284,8.60438903 3.37351417,8.29324011 3.72780589,8.27990515 C3.85490606,8.27546018 4.02013629,8.30805672 4.09321889,8.48881944 Z M17.3851503,16.4470559 C17.7299095,17.3923559 15.6788305,18.1020717 15.817052,19.6506196 C15.9552734,21.1989558 13.6036933,21.9723831 12.6583858,23.3920264 C11.7130783,24.8099764 9.59209423,23.2201537 7.35649304,23.8217082 C5.12111881,24.4232628 3.80722081,22.553406 2.33104312,22.5961626 C0.85509241,22.6391307 0.0940801468,21.8212536 0.0940801468,21.8212536 C0.85509241,21.0700513 0.486501918,18.1672648 0.0718376172,14.8350082 C-0.287220361,11.9544467 0.801074836,9.17040485 1.10134899,8.46809734 C1.29858121,8.74664969 1.72572857,9.20596474 2.42636825,9.29486444 C2.41683574,9.32153433 2.40730323,9.34968589 2.39777071,9.37931914 C2.22141923,9.95568542 1.80198867,10.4046289 1.43180943,10.8002324 C1.08705022,11.1691661 0.789953574,11.4862417 0.761356034,11.8270238 L0.918642496,11.8388771 C0.944062527,11.5472015 1.22527165,11.2462126 1.55096584,10.8980221 C1.90684631,10.5172351 2.30721184,10.089035 2.51238783,9.5378569 C2.71098184,10.2416461 3.4259203,10.8046774 4.11861621,11.3484472 C4.70804324,11.8136889 5.26569524,12.2524723 5.46905552,12.7429023 L5.61680948,12.6895625 C5.39915041,12.1635726 4.82719967,11.7129359 4.22029635,11.2358409 C3.48947038,10.6609563 2.73481313,10.06681 2.62813977,9.32746097 C4.27431391,9.6919497 5.651762,8.90222414 6.11567764,8.58663025 C10.9425335,7.59243543 13.5260714,11.49365 14.7573543,12.6419376 C16.0013472,13.8022902 17.4248691,12.9856831 17.4248691,12.9856831 C18.0635475,14.0600993 17.0388023,15.5017559 17.3851503,16.4470559 Z M2.00387367,8.30505107 C2.18816892,8.39543241 2.39470669,8.65768652 2.44872426,9.12589152 C2.07695627,8.99106033 1.76714961,8.67694809 1.73537456,8.46062554 C1.72266455,8.38061581 1.74967333,8.32431267 1.81640092,8.28578946 C1.8338772,8.2768995 1.85453097,8.27097286 1.87836226,8.27097286 C1.91490355,8.27097286 1.95779986,8.28282614 2.00387367,8.30505107 Z"/>
</svg>
