<svg xmlns="http://www.w3.org/2000/svg" width="24" height="24" viewBox="0 0 24 24">
  <defs>
    <linearGradient id="instagram-a" x1="0%" y1="0%" y2="100%">
      <stop offset="0%" stop-color="#FF9A8B"/>
      <stop offset="48.368%" stop-color="#FF6A88"/>
      <stop offset="100%" stop-color="#FF99AC"/>
    </linearGradient>
  </defs>
  <path fill="url(#instagram-a)" fill-rule="evenodd" d="M163.000024,0 C166.259004,0 166.667657,0.0138138818 167.947585,0.0722132578 C169.224845,0.130469732 170.097168,0.333343257 170.860456,0.630008276 C171.649562,0.936628817 172.318773,1.34694874 172.985936,2.01406396 C173.653051,2.68122682 174.063371,3.35043794 174.370039,4.13954402 C174.666657,4.90283244 174.86953,5.77515526 174.927787,7.05241535 C174.986186,8.33234294 175,8.74099567 175,12.0000238 C175,15.2590043 174.986186,15.6676571 174.927787,16.9475847 C174.86953,18.2248447 174.666657,19.0971676 174.370039,19.860456 C174.063371,20.6495621 173.653051,21.3187732 172.985936,21.985936 C172.318773,22.6530513 171.649562,23.0633712 170.860456,23.3700394 C170.097168,23.6666567 169.224845,23.8695303 167.947585,23.9277867 C166.667657,23.9861861 166.259004,24 163.000024,24 C159.740996,24 159.332343,23.9861861 158.052415,23.9277867 C156.775155,23.8695303 155.902832,23.6666567 155.139544,23.3700394 C154.350438,23.0633712 153.681227,22.6530513 153.014064,21.985936 C152.346949,21.3187732 151.936629,20.6495621 151.630008,19.860456 C151.333343,19.0971676 151.13047,18.2248447 151.072213,16.9475847 C151.013814,15.6676571 151,15.2590043 151,12.0000238 C151,8.74099567 151.013814,8.33234294 151.072213,7.05241535 C151.13047,5.77515526 151.333343,4.90283244 151.630008,4.13954402 C151.936629,3.35043794 152.346949,2.68122682 153.014064,2.01406396 C153.681227,1.34694874 154.350438,0.936628817 155.139544,0.630008276 C155.902832,0.333343257 156.775155,0.130469732 158.052415,0.0722132578 C159.332343,0.0138138818 159.740996,0 163.000024,0 Z M163.000024,2.1621583 C159.79587,2.1621583 159.416322,2.17440026 158.15097,2.23213276 C156.980982,2.28548292 156.345591,2.48097316 155.922743,2.64531072 C155.362614,2.86299845 154.962869,3.12303286 154.542975,3.54297487 C154.123033,3.96286924 153.862998,4.3626144 153.645311,4.92274348 C153.480973,5.34559117 153.285483,5.9809821 153.232133,7.15097025 C153.1744,8.41632182 153.162158,8.79587013 153.162158,12.0000238 C153.162158,15.2041299 153.1744,15.5836782 153.232133,16.8490298 C153.285483,18.0190179 153.480973,18.6544088 153.645311,19.0772565 C153.862998,19.6373856 154.12308,20.0371308 154.542975,20.4570251 C154.962869,20.8769671 155.362614,21.1370016 155.922743,21.3546893 C156.345591,21.5190268 156.980982,21.7145171 158.15097,21.7678672 C159.416179,21.8255997 159.795632,21.8378417 163.000024,21.8378417 C166.204368,21.8378417 166.583869,21.8255997 167.84903,21.7678672 C169.019018,21.7145171 169.654409,21.5190268 170.077257,21.3546893 C170.637386,21.1370016 171.037131,20.8769671 171.457025,20.4570251 C171.876967,20.0371308 172.137002,19.6373856 172.354689,19.0772565 C172.519027,18.6544088 172.714517,18.0190179 172.767867,16.8490298 C172.8256,15.5836782 172.837842,15.2041299 172.837842,12.0000238 C172.837842,8.79587013 172.8256,8.41632182 172.767867,7.15097025 C172.714517,5.9809821 172.519027,5.34559117 172.354689,4.92274348 C172.137002,4.3626144 171.876967,3.96286924 171.457025,3.54297487 C171.037131,3.12303286 170.637386,2.86299845 170.077257,2.64531072 C169.654409,2.48097316 169.019018,2.28548292 167.84903,2.23213276 C166.583678,2.17440026 166.20413,2.1621583 163.000024,2.1621583 Z M163.000024,5.8378417 C166.403288,5.8378417 169.162158,8.59671206 169.162158,12.0000238 C169.162158,15.4032879 166.403288,18.1621583 163.000024,18.1621583 C159.596712,18.1621583 156.837842,15.4032879 156.837842,12.0000238 C156.837842,8.59671206 159.596712,5.8378417 163.000024,5.8378417 Z M163.000024,16 C165.209149,16 167,14.2091493 167,12.0000238 C167,9.79085069 165.209149,8 163.000024,8 C160.790851,8 159,9.79085069 159,12.0000238 C159,14.2091493 160.790851,16 163.000024,16 Z M170.845642,5.59438394 C170.845642,6.38968246 170.200915,7.03436203 169.405616,7.03436203 C168.610365,7.03436203 167.965638,6.38968246 167.965638,5.59438394 C167.965638,4.79908543 168.610365,4.15435822 169.405616,4.15435822 C170.200915,4.15435822 170.845642,4.79908543 170.845642,5.59438394 Z" transform="translate(-151)"/>
</svg>
