<svg xmlns="http://www.w3.org/2000/svg" width="24" height="24" viewBox="0 0 24 24">
  <path fill="#C9C9C9" d="M8,19 L6.41421356,19 C5.86192881,19 5.41421356,18.5522847 5.41421356,18 C5.41421356,17.7347835 5.5195704,17.4804296 5.70710678,17.2928932 L7.29289322,15.7071068 C7.68341751,15.3165825 8.31658249,15.3165825 8.70710678,15.7071068 L9.84615385,16.8461538 L13.2407434,12.8857994 C13.6001655,12.4664735 14.2314655,12.417912 14.6507914,12.7773341 C14.6896702,12.8106588 14.7259319,12.8469206 14.7592566,12.8857994 L18.585036,17.3492086 C18.9444581,17.7685345 18.8958966,18.3998345 18.4765707,18.7592566 C18.2953276,18.9146078 18.0644906,19 17.8257794,19 L8,19 Z M4,0 L20,0 C22.209139,0 24,1.790861 24,4 L24,20 C24,22.209139 22.209139,24 20,24 L4,24 C1.790861,24 0,22.209139 0,20 L0,4 C0,1.790861 1.790861,0 4,0 Z M4,2 C2.8954305,2 2,2.8954305 2,4 L2,20 C2,21.1045695 2.8954305,22 4,22 L20,22 C21.1045695,22 22,21.1045695 22,20 L22,4 C22,2.8954305 21.1045695,2 20,2 L4,2 Z M16,10 C14.8954305,10 14,9.1045695 14,8 C14,6.8954305 14.8954305,6 16,6 C17.1045695,6 18,6.8954305 18,8 C18,9.1045695 17.1045695,10 16,10 Z"/>
</svg>
