<svg xmlns="http://www.w3.org/2000/svg" width="23" height="24" viewBox="0 0 23 24">
  <path fill="#FF6A88" d="M1218.61259,1017.9865 C1220.64437,1017.95247 1222.43378,1017.38229 1224.00601,1016.26889 C1222.41612,1014.36102 1221.61578,1012.05521 1221.61578,1009.39157 L1221.61578,1007.99298 C1221.61578,1004.68795 1218.87022,1002 1215.47292,1002 C1212.07562,1002 1209.33006,1004.68795 1209.33006,1007.99298 L1209.33006,1009.39157 C1209.33006,1012.06008 1208.52678,1014.36946 1206.9311,1016.27936 C1208.47942,1017.43619 1209.99015,1018 1211.47292,1018 C1211.55175,1018 1211.62845,1018.00912 1211.70202,1018.02637 L1211.90149,1017.89339 L1211.90149,1016.83932 C1210.45512,1015.48807 1209.61578,1013.35281 1209.61578,1010.42857 L1209.61578,1010.192 L1209.72178,1009.9805 C1210.52748,1008.37294 1211.34568,1007.14563 1212.19271,1006.29457 L1213.17576,1005.30684 L1213.79673,1006.55441 C1215.11015,1009.19319 1216.93051,1010.10337 1219.51661,1009.4583 L1220.75863,1009.1485 L1220.75863,1010.42857 C1220.75863,1013.35281 1219.91929,1015.48807 1218.47292,1016.83932 L1218.47292,1017.89339 L1218.61259,1017.9865 Z M1221.1664,1019.68904 L1222.19824,1020.37694 L1221.79134,1021.17054 C1220.80247,1023.0992 1218.55046,1024 1215.1872,1024 C1211.82395,1024 1209.57194,1023.0992 1208.58307,1021.17054 L1208.17617,1020.37694 L1209.22373,1019.67856 C1207.73352,1019.25113 1206.26267,1018.39974 1204.81577,1017.13831 L1204,1016.4271 L1204.77335,1015.66998 C1206.4833,1013.99591 1207.33006,1011.92343 1207.33006,1009.39157 L1207.33006,1007.99298 C1207.33006,1003.57377 1210.98043,1000 1215.47292,1000 C1219.9654,1000 1223.61578,1003.57377 1223.61578,1007.99298 L1223.61578,1009.39157 C1223.61578,1011.92343 1224.46254,1013.99591 1226.17249,1015.66998 L1226.94584,1016.4271 L1226.13006,1017.13831 C1224.659,1018.42081 1222.99987,1019.27234 1221.1664,1019.68904 Z M1213.51993,1015.59502 L1213.90149,1015.8953 L1213.90149,1018.96376 L1210.91912,1020.952 C1211.71596,1021.63139 1213.11562,1022 1215.1872,1022 C1217.25879,1022 1218.65845,1021.63139 1219.45529,1020.952 L1216.47292,1018.96376 L1216.47292,1015.8953 L1216.85448,1015.59502 C1217.83649,1014.8222 1218.5077,1013.53638 1218.70118,1011.62446 C1216.24861,1011.85407 1214.23419,1010.86799 1212.76194,1008.7359 C1212.38613,1009.26941 1212.00391,1009.91221 1211.61783,1010.66369 C1211.66095,1013.11416 1212.38165,1014.69921 1213.51993,1015.59502 Z" transform="translate(-1204 -1000)"/>
</svg>
