<svg xmlns="http://www.w3.org/2000/svg" width="24" height="20" viewBox="0 0 24 20">
  <defs>
    <linearGradient id="twitter-a" x1="0%" y1="0%" y2="100%">
      <stop offset="0%" stop-color="#FF9A8B"/>
      <stop offset="48.368%" stop-color="#FF6A88"/>
      <stop offset="100%" stop-color="#FF99AC"/>
    </linearGradient>
  </defs>
  <path fill="url(#twitter-a)" fill-rule="evenodd" d="M100,4.36764175 C99.1181546,4.76923077 98.1686917,5.04080896 97.1727417,5.1621524 C98.1898222,4.5381004 98.9702412,3.54857349 99.3379116,2.3698086 C98.3856313,2.94763453 97.3333333,3.36800289 96.2091918,3.593355 C95.3132594,2.61249549 94.0327522,2 92.6156013,2 C89.8982215,2 87.693608,4.26074395 87.693608,7.04875406 C87.693608,7.44456482 87.735869,7.82881907 87.8203909,8.19862766 C83.7281211,7.9877212 80.100722,5.97977609 77.6707167,2.92163236 C77.2466984,3.66991694 77.0044022,4.5381004 77.0044022,5.46262189 C77.0044022,7.21343445 77.8735693,8.75911882 79.1949287,9.66486096 C78.389153,9.64030336 77.6284557,9.41061755 76.9635499,9.0350307 L76.9635499,9.09714698 C76.9635499,11.5442398 78.6610319,13.5854099 80.9149498,14.0476706 C80.5022011,14.166125 80.0669132,14.2253521 79.6175383,14.2253521 C79.3005811,14.2253521 78.9906674,14.1950163 78.6906145,14.1357891 C79.3174855,16.1408451 81.1347068,17.6013001 83.2900158,17.6403034 C81.6052122,18.9953052 79.4808945,19.8028169 77.1748547,19.8028169 C76.7776017,19.8028169 76.3845747,19.7797039 76,19.7334778 C78.1792569,21.163597 80.7684451,22 83.5478077,22 C92.6057404,22 97.5573164,14.3076923 97.5573164,7.63524738 C97.5573164,7.41567353 97.5530903,7.19609967 97.5446381,6.98085952 C98.5067794,6.26868906 99.3421377,5.38028169 100,4.36764175" transform="translate(-76 -2)"/>
</svg>
