<svg xmlns="http://www.w3.org/2000/svg" width="22" height="14" viewBox="0 0 22 14">
  <path fill="#D1D1D6" d="M12.177092,3.17600191 C12.0633339,3.42726908 12,3.70623833 12,4 C12,5.1045695 12.8954305,6 14,6 C14.2937617,6 14.5727309,5.93666613 14.8239981,5.82290805 C14.938415,6.19505274 15,6.5903344 15,7 C15,9.209139 13.209139,11 11,11 C8.790861,11 7,9.209139 7,7 C7,4.790861 8.790861,3 11,3 C11.4096656,3 11.8049473,3.06158498 12.177092,3.17600191 Z M11,14 C6.94991183,14 3.28324517,11.6666667 0,7 C3.28324517,2.33333333 6.94991183,0 11,0 C15.0500882,0 18.7167548,2.33333333 22,7 C18.7167548,11.6666667 15.0500882,14 11,14 Z M11,2 C7.99783957,2 5.17677591,3.61036443 2.49341639,7 C5.17677591,10.3896356 7.99783957,12 11,12 C14.0021604,12 16.8232241,10.3896356 19.5065836,7 C16.8232241,3.61036443 14.0021604,2 11,2 Z"/>
</svg>
