<svg xmlns="http://www.w3.org/2000/svg" width="22" height="30" viewBox="0 0 22 30">
  <path fill="#FF6A88" d="M0.920921131,6.12157896 C0.920921131,6.12157896 0.383653708,5.69973683 0.296742801,4.87078946 C0.498218086,4.0418421 2.03891143,3.07447368 2.03891143,3.07447368 C0.719445847,2.94026316 1.57896086,2.40578948 1.15004988,2.2181579 C0.719445847,2.0318421 1.32189645,1.30973684 1.06313898,1.06842105 C0.806356755,0.828947367 1.32189645,0 1.32189645,0 C1.57896086,0.508421054 3.04036211,0 3.61515924,0 C4.1882633,0 5.3635358,0.587631579 5.3635358,0.587631579 C3.95913455,1.8181579 4.02234248,4.76578946 4.02234248,4.76578946 C7.54618468,3.80421053 9.69158607,1.71131579 9.69158607,1.71131579 C10.3789723,2.00421053 11.0959873,2.72657895 11.0959873,2.72657895 C11.4966805,3.39526316 12.3561955,4.81184213 12.5576708,5.88026317 C12.7571708,6.95052633 13.8475076,6.97631579 13.8475076,6.97631579 C13.675661,7.67078946 12.9862996,7.13657896 12.4134777,7.72421054 C11.8406558,8.31394738 11.3527695,7.37789475 11.0959873,7.99315788 C10.8372298,8.60657896 9.97771486,8.36710525 9.97771486,8.36710525 C10.0626505,7.51052633 9.29032857,6.81605263 9.29032857,6.81605263 C7.76543721,8.03184213 7.46322428,10.0360526 7.40791736,10.5797368 C6.90817963,10.9076316 5.7645111,11.5302632 4.3443079,11.5302632 C4.74923369,11.458421 5.04354565,11.3221053 5.20156548,11.125 C5.34378333,10.9481579 5.36946152,10.7289474 5.27267438,10.4894737 C5.17193675,10.2371053 4.93490701,10.0968421 4.62676835,10.11 C4.1662534,10.126579 3.57791171,10.4855263 3.2105156,11.1342105 C3.10187697,10.5981579 2.82901058,10.2828948 2.5821046,10.161579 C2.42606002,10.0857895 2.27001543,10.0786842 2.15545105,10.145 C2.00335697,10.2297368 1.93422329,10.373421 1.96187677,10.5447368 C1.99348073,10.7473684 2.15545105,10.9757895 2.38062931,11.1673684 C1.89669358,10.9186842 1.59448066,10.5244737 1.46213905,10.32 L1.4641143,10.3181579 C1.15004988,9.06157896 0.920921131,6.12157896 0.920921131,6.12157896 Z M5.08897635,10.5538948 C5.16008526,10.734421 5.14428327,10.8891579 5.04354565,11.014421 C4.81639211,11.2981053 4.1662534,11.4362632 3.29347601,11.3920526 C3.61515924,10.697579 4.19418905,10.3107368 4.63466932,10.2941579 C4.79268916,10.2886316 4.99811494,10.3291579 5.08897635,10.5538948 Z M21.6144362,20.4481316 C22.043065,21.6233947 19.49302,22.5057632 19.6648666,24.4310263 C19.8367131,26.3560263 16.9130641,27.3176052 15.7377916,29.0826052 C14.5625191,30.8455 11.9255632,28.868921 9.14610727,29.6168158 C6.36693351,30.3647105 4.73340351,28.0399737 2.89811604,28.0931316 C1.06311076,28.1465526 0.116967026,27.1297105 0.116967026,27.1297105 C1.06311076,26.1957632 0.604853252,22.5868158 0.0893135559,18.443921 C-0.357092465,14.8626052 0.995952331,11.4012895 1.36927418,10.5281316 C1.6144871,10.8744474 2.1455466,11.4455 3.01663091,11.5560263 C3.00477943,11.5891842 2.99292794,11.6241842 2.98107645,11.6610263 C2.76182394,12.3776052 2.2403585,12.9357632 1.78012574,13.4276052 C1.35149695,13.8862895 0.982125599,14.2805 0.946571134,14.7041842 L1.14212068,14.718921 C1.17372464,14.3562895 1.52334352,13.982079 1.92826933,13.5491842 C2.37072486,13.0757632 2.86848732,12.5433947 3.12357648,11.8581316 C3.37048246,12.7331316 4.25934401,13.4331316 5.12055207,14.1091842 C5.85336903,14.6876053 6.54668105,15.2331316 6.79951278,15.8428684 L6.98321086,15.7765526 C6.71260185,15.1226052 6.00151265,14.5623421 5.24696794,13.9691842 C4.33835393,13.2544474 3.40011118,12.5157632 3.26748739,11.5965526 C5.31412636,12.0497105 7.02666628,11.0678684 7.60343869,10.6755 C13.6045239,9.43944738 16.8165591,14.2897105 18.3473763,15.7173421 C19.8939953,17.1599737 21.6638175,16.1447105 21.6638175,16.1447105 C22.4578671,17.4805 21.1838322,19.2728684 21.6144362,20.4481316 Z M2.49135607,10.325421 C2.72048482,10.4377895 2.97726705,10.7638421 3.04442547,11.3459474 C2.58221747,11.1783158 2.19704414,10.7877895 2.15753918,10.5188421 C2.14173719,10.4193684 2.17531641,10.3493684 2.25827682,10.3014737 C2.28000454,10.290421 2.30568277,10.2830526 2.33531149,10.2830526 C2.38074218,10.2830526 2.43407388,10.2977895 2.49135607,10.325421 Z"/>
</svg>
