<svg xmlns="http://www.w3.org/2000/svg" width="191" height="12" viewBox="0 0 191 12">
  <g fill="none">
    <path fill="#212121" d="M9.06953439,6.785625 C9.58728229,7.30729167 9.84572764,7.93520833 9.84572764,8.669375 C9.84572764,9.27729167 9.68543152,9.81729167 9.36441068,10.289375 C9.04381843,10.760625 8.58436002,11.1289583 7.98560686,11.3939583 C7.38685369,11.6589583 6.68095071,11.7910417 5.86618352,11.7910417 C5.6454549,11.7910417 5.25671537,11.7835417 4.70125073,11.7672917 C4.14621469,11.7514583 3.58517826,11.7439583 3.01942724,11.7439583 C2.1129398,11.7439583 1.42846678,11.7597917 0.964722385,11.7910417 L0.964722385,11.4689583 C1.3633197,11.453125 1.65348139,11.4110417 1.83392168,11.3427083 C2.01479057,11.2747917 2.13865576,11.1489583 2.20594584,10.965625 C2.27323592,10.781875 2.30709527,10.488125 2.30709527,10.084375 L2.30709527,2.09520833 C2.30709527,1.69145833 2.27323592,1.398125 2.20594584,1.214375 C2.13865576,1.03104167 2.01479057,0.905208333 1.83392168,0.837291667 C1.65348139,0.768958333 1.3633197,0.726875 0.964722385,0.711458333 L0.964722385,0.388958333 C1.42289499,0.420625 2.09708163,0.436041667 2.98642509,0.436041667 C3.41802455,0.436041667 3.89419832,0.430625 4.41451783,0.420625 C4.93483733,0.409791667 5.29186051,0.404375 5.48601598,0.404375 C6.24120787,0.404375 6.87982077,0.510625 7.40314046,0.723125 C7.92646016,0.935208333 8.31991428,1.23145833 8.58436002,1.61145833 C8.84837717,1.991875 8.98038574,2.43354167 8.98038574,2.936875 C8.98038574,3.55520833 8.77980129,4.11104167 8.37820378,4.60395833 C7.97617767,5.09645833 7.33842198,5.47395833 6.46493668,5.73604167 L6.46493668,5.76770833 C7.68344438,5.92479167 8.55178648,6.264375 9.06953439,6.785625 Z M3.94134424,10.941875 C4.00563413,11.1252083 4.12478473,11.2510417 4.29708163,11.3189583 C4.46937853,11.3872917 4.73425287,11.4214583 5.08999026,11.4214583 C7.15498149,11.4214583 8.18790571,10.480625 8.18790571,8.59854167 C8.18790571,7.75479167 7.95174752,7.11229167 7.48028833,6.671875 C7.00797195,6.23145833 6.26006624,6.01145833 5.23571401,6.01145833 L3.84405221,6.01145833 L3.84405221,10.084375 C3.84405221,10.4727083 3.87662575,10.7585417 3.94134424,10.941875 Z M6.85324761,5.020625 C7.21455679,4.54354167 7.39542568,3.90645833 7.39542568,3.10979167 C7.39542568,2.30229167 7.21198519,1.700625 6.84510423,1.30520833 C6.47822326,0.909375 5.88804208,0.711458333 5.07370349,0.711458333 C4.72868108,0.711458333 4.46937853,0.749375 4.29708163,0.825208333 C4.12478473,0.901458333 4.00563413,1.03645833 3.94134424,1.23020833 C3.87662575,1.424375 3.84405221,1.71270833 3.84405221,2.09520833 L3.84405221,5.73604167 L4.96055328,5.73604167 C5.86104033,5.73604167 6.49193844,5.49770833 6.85324761,5.020625 Z M36.2231405,9.73095833 C36.2231405,10.338875 36.2612858,11.0255417 36.3367193,11.7909583 C35.5870992,11.7597083 34.3223027,11.743875 32.5427586,11.743875 C30.4237639,11.743875 28.8220884,11.7597083 27.7381609,11.7909583 L27.7381609,11.468875 C28.1371868,11.4530417 28.4273485,11.4109583 28.6077888,11.342625 C28.7882291,11.2747083 28.9125229,11.148875 28.9802416,10.9655417 C29.0475317,10.7817917 29.0809624,10.4880417 29.0809624,10.0847083 L29.0809624,2.095125 C29.0809624,1.69179167 29.0475317,1.39804167 28.9802416,1.21470833 C28.9125229,1.031375 28.7882291,0.905125 28.6077888,0.837208333 C28.4273485,0.768875 28.1371868,0.727208333 27.7381609,0.711375 L27.7381609,0.388875 C28.8220884,0.420541667 30.4237639,0.435958333 32.5427586,0.435958333 C34.165864,0.435958333 35.3200818,0.420541667 36.0049834,0.388875 C35.9291214,1.091375 35.8918332,1.72595833 35.8918332,2.29179167 C35.8918332,2.711375 35.90812,3.04429167 35.940265,3.29054167 L35.5600974,3.29054167 C35.4795207,2.59345833 35.3779427,2.07429167 35.2566491,1.73345833 C35.1353555,1.39304167 34.9304851,1.145125 34.6420378,0.990541667 C34.3535905,0.835958333 33.9181336,0.758458333 33.3356673,0.758458333 L31.9607208,0.758458333 C31.5616949,0.758458333 31.2715332,0.790125 31.0910929,0.853041667 C30.910224,0.915958333 30.7863589,1.037625 30.7190688,1.21845833 C30.6513501,1.39929167 30.6179193,1.69179167 30.6179193,2.095125 L30.6179193,5.89345833 L31.717705,5.89345833 C32.2731697,5.89345833 32.6426222,5.73220833 32.8260627,5.40970833 C33.0095032,5.08720833 33.1226534,4.75845833 33.1655133,4.42304167 C33.2092305,4.087625 33.2383752,3.870125 33.254662,3.770125 L33.6348295,3.770125 C33.5971128,4.29970833 33.5782544,4.80554167 33.5782544,5.28804167 L33.5863978,6.05845833 C33.5863978,6.603875 33.6189714,7.366375 33.6832613,8.34679167 L33.3035223,8.34679167 C33.2923787,8.27345833 33.2615196,8.013875 33.2105163,7.56845833 C33.1590844,7.122625 33.0095032,6.78595833 32.7613442,6.55804167 C32.5136139,6.32970833 32.1655913,6.21554167 31.717705,6.21554167 L30.6179193,6.21554167 L30.6179193,10.0847083 C30.6179193,10.4880417 30.6513501,10.7809583 30.7190688,10.961375 C30.7863589,11.142625 30.910224,11.2642917 31.0910929,11.3272083 C31.2715332,11.3897083 31.5616949,11.4217917 31.9607208,11.4217917 L33.1740853,11.4217917 C33.8641301,11.4217917 34.3887356,11.332625 34.7474732,11.1542917 C35.1057822,10.9759583 35.3646561,10.690125 35.5236665,10.2967917 C35.6826768,9.903875 35.8052562,9.32720833 35.8918332,8.56720833 L36.2715722,8.56720833 C36.2394272,8.855125 36.2231405,9.24304167 36.2231405,9.73095833 Z M76.6993688,0.420583333 L77.1035379,0.412666667 C78.6242081,0.381 79.4578336,0.365166667 79.6031288,0.365166667 C81.5553984,0.365166667 83.0177791,0.83975 83.9915566,1.7885 C84.9644769,2.73766667 85.4513657,4.12141667 85.4513657,5.94058333 C85.4513657,7.10975 85.2152075,8.13308333 84.7437483,9.011 C84.2718605,9.88933333 83.5856731,10.5685 82.6851861,11.0480833 C81.7842704,11.5276667 80.7089149,11.7676667 79.4578336,11.7676667 C79.3065381,11.7676667 78.9465147,11.75975 78.3777635,11.7439167 C77.8090123,11.7280833 77.3949854,11.7201667 77.1361114,11.7201667 C76.2300526,11.7201667 75.5455796,11.736 75.0818352,11.7676667 L75.0818352,11.4451667 C75.4804325,11.4293333 75.7705942,11.38725 75.9510345,11.3189167 C76.1319034,11.251 76.2557686,11.1255833 76.3230586,10.9418333 C76.3903487,10.7585 76.4242081,10.46475 76.4242081,10.061 L76.4242081,2.07183333 C76.4242081,1.66808333 76.3903487,1.37433333 76.3230586,1.191 C76.2557686,1.00766667 76.1319034,0.881833333 75.9510345,0.8135 C75.7705942,0.745166667 75.4804325,0.7035 75.0818352,0.687666667 L75.0818352,0.365166667 C75.674588,0.40225 76.2137658,0.420583333 76.6993688,0.420583333 Z M78.058457,10.9614167 C78.1227469,11.1526667 78.2431833,11.2864167 78.4184804,11.3626667 C78.5933489,11.4389167 78.8560803,11.4764167 79.2071031,11.4764167 C80.3823222,11.4764167 81.3042392,11.2693333 81.9732827,10.8551667 C82.6418975,10.441 83.1124995,9.83725 83.38466,9.04308333 C83.6572492,8.2485 83.7931151,7.23558333 83.7931151,6.0035 C83.7931151,4.76641667 83.6448198,3.7585 83.3482291,2.98016667 C83.0516384,2.20141667 82.5677499,1.61975 81.8961348,1.23433333 C81.2249484,0.848916667 80.3231755,0.656416667 79.1908163,0.656416667 C78.8457939,0.656416667 78.5864913,0.694333333 78.4141944,0.770583333 C78.2418975,0.846416667 78.1227469,0.981416667 78.058457,1.17516667 C77.9937386,1.36933333 77.961165,1.65766667 77.961165,2.04016667 L77.961165,10.0926667 C77.961165,10.4805833 77.9937386,10.7701667 78.058457,10.9614167 Z M112.952823,11.7515 C112.699521,11.9144167 112.365213,11.99525 111.949901,11.99525 C111.4973,11.99525 111.125276,11.8673333 110.833828,11.6098333 C110.542381,11.3531667 110.321652,10.8998333 110.170357,10.2498333 L109.806476,8.64566667 C109.677467,8.08483333 109.554459,7.65358333 109.438309,7.35233333 C109.322159,7.05066667 109.14729,6.80941667 108.912418,6.62858333 C108.678402,6.44775 108.353524,6.35733333 107.938212,6.35733333 L106.360538,6.35733333 L106.360538,10.0610833 C106.360538,10.4644167 106.394397,10.7585833 106.462116,10.9419167 C106.529406,11.12525 106.653271,11.2510833 106.83414,11.319 C107.01458,11.3873333 107.304313,11.4294167 107.703339,11.44525 L107.703339,11.7673333 C107.196735,11.7360833 106.495546,11.72025 105.600631,11.72025 C104.651284,11.72025 103.944952,11.7360833 103.481208,11.7673333 L103.481208,11.44525 C103.880234,11.4294167 104.169967,11.3873333 104.350836,11.319 C104.531276,11.2510833 104.65557,11.12525 104.72286,10.9419167 C104.79015,10.7585833 104.823581,10.4644167 104.823581,10.0610833 L104.823581,2.0715 C104.823581,1.66816667 104.79015,1.37441667 104.72286,1.19108333 C104.65557,1.00775 104.531276,0.8815 104.350836,0.813583333 C104.169967,0.74525 103.880234,0.703583333 103.481208,0.68775 L103.481208,0.36525 C103.944952,0.396916667 104.619139,0.412333333 105.503339,0.412333333 C105.93451,0.412333333 106.410684,0.407333333 106.931003,0.396916667 C107.451323,0.386083333 107.808346,0.381083333 108.002501,0.381083333 C108.8657,0.381083333 109.596034,0.503166667 110.194787,0.746916667 C110.793111,0.990666667 111.243569,1.32316667 111.545732,1.74525 C111.847465,2.16733333 111.998761,2.64566667 111.998761,3.18025 C111.998761,3.59983333 111.897183,4.02316667 111.695313,4.45025 C111.493014,4.87775 111.150563,5.26025 110.66796,5.59858333 C110.185357,5.9365 109.555745,6.16358333 108.779123,6.279 L108.981851,6.31025 C109.47774,6.389 109.874194,6.50775 110.170357,6.66775 C110.466947,6.82775 110.703105,7.0465 110.877974,7.32441667 C111.0537,7.60233333 111.195137,7.97191667 111.303144,8.43316667 L111.715457,10.0769167 C111.785747,10.4073333 111.857323,10.66525 111.929756,10.8515 C112.002618,11.0373333 112.089195,11.17525 112.18863,11.264 C112.288065,11.3531667 112.413645,11.3981667 112.564941,11.3981667 C112.748381,11.3981667 112.899248,11.3519167 113.01797,11.26025 C113.136263,11.1685833 113.28713,11.0098333 113.470571,10.7844167 L113.721301,10.9656667 C113.462856,11.3273333 113.206554,11.5894167 112.952823,11.7515 Z M109.224009,5.689 C109.644465,5.45816667 109.935913,5.149 110.097495,4.76108333 C110.259505,4.37316667 110.340082,3.9065 110.340082,3.3615 C110.340082,2.48066667 110.124925,1.81483333 109.693326,1.364 C109.262155,0.913166667 108.560966,0.68775 107.590189,0.68775 C107.245167,0.68775 106.986293,0.725666667 106.813567,0.801916667 C106.64127,0.87775 106.522548,1.01275 106.45783,1.20691667 C106.393111,1.40066667 106.360538,1.689 106.360538,2.0715 L106.360538,6.03483333 L107.477039,6.03483333 C108.221087,6.03483333 108.803553,5.91983333 109.224009,5.689 Z M139.265689,9.70733333 C139.265689,10.31525 139.303405,11.0019167 139.378839,11.7673333 C138.629647,11.7360833 137.364422,11.72025 135.585307,11.72025 C133.466312,11.72025 131.864208,11.7360833 130.780709,11.7673333 L130.780709,11.44525 C131.179735,11.4294167 131.469468,11.3873333 131.649908,11.319 C131.830777,11.2510833 131.954643,11.12525 132.022361,10.9419167 C132.089651,10.7581667 132.123511,10.4644167 132.123511,10.0610833 L132.123511,2.0715 C132.123511,1.66816667 132.089651,1.37441667 132.022361,1.19108333 C131.954643,1.00775 131.830777,0.8815 131.649908,0.813583333 C131.469468,0.74525 131.179735,0.703583333 130.780709,0.68775 L130.780709,0.36525 C131.864208,0.396916667 133.466312,0.412333333 135.585307,0.412333333 C137.208412,0.412333333 138.36263,0.396916667 139.047103,0.36525 C138.97167,1.06775 138.934381,1.70233333 138.934381,2.26816667 C138.934381,2.68775 138.95024,3.02066667 138.982813,3.26691667 L138.602217,3.26691667 C138.52164,2.56983333 138.420062,2.05066667 138.299197,1.70983333 C138.177904,1.36941667 137.972605,1.1215 137.684586,0.966916667 C137.396139,0.812333333 136.960253,0.734833333 136.378215,0.734833333 L135.00284,0.734833333 C134.603815,0.734833333 134.314081,0.7665 134.133213,0.829416667 C133.952772,0.892333333 133.828478,1.014 133.761188,1.19483333 C133.693898,1.37566667 133.660039,1.66816667 133.660039,2.0715 L133.660039,5.86983333 L134.760253,5.86983333 C135.315718,5.86983333 135.68517,5.70858333 135.868182,5.38608333 C136.051623,5.06358333 136.165202,4.73483333 136.208062,4.39941667 C136.25135,4.064 136.280923,3.8465 136.296782,3.7465 L136.677378,3.7465 C136.639661,4.27608333 136.620803,4.78191667 136.620803,5.26441667 L136.628946,6.03483333 C136.628946,6.58025 136.661091,7.34275 136.725809,8.32316667 L136.345642,8.32316667 C136.334927,8.24983333 136.304068,7.99025 136.252636,7.54483333 C136.201633,7.099 136.051623,6.76233333 135.803892,6.53441667 C135.555733,6.30608333 135.207711,6.19191667 134.760253,6.19191667 L133.660039,6.19191667 L133.660039,10.0610833 C133.660039,10.4644167 133.693898,10.7573333 133.761188,10.93775 C133.828478,11.119 133.952772,11.2406667 134.133213,11.3035833 C134.314081,11.3660833 134.603815,11.3981667 135.00284,11.3981667 L136.216205,11.3981667 C136.90625,11.3981667 137.430855,11.309 137.789593,11.1306667 C138.14833,10.9523333 138.406776,10.6665 138.565786,10.2731667 C138.724796,9.88025 138.847376,9.30358333 138.934381,8.54358333 L139.31412,8.54358333 C139.281975,8.8315 139.265689,9.21983333 139.265689,9.70733333 Z M159.050773,10.66275 C159.525233,11.3360833 160.255995,11.6731667 161.24263,11.6731667 C161.620226,11.6731667 161.972106,11.5969167 162.29827,11.44525 C162.624863,11.2931667 162.88888,11.0556667 163.091179,10.7335833 C163.293049,10.4110833 163.394627,10.0085833 163.394627,9.52608333 C163.394627,9.11191667 163.290906,8.7415 163.083035,8.414 C162.875593,8.08566667 162.593575,7.78608333 162.237838,7.51316667 C161.881672,7.24066667 161.407212,6.9315 160.814031,6.58566667 C160.156131,6.20275 159.627668,5.85941667 159.228642,5.55525 C158.829616,5.25108333 158.502166,4.88816667 158.245864,4.46608333 C157.989562,4.044 157.861839,3.54733333 157.861839,2.97608333 C157.861839,2.36775 158.003277,1.854 158.286581,1.43483333 C158.569456,1.01525 158.947052,0.702333333 159.418512,0.49525 C159.890828,0.288166667 160.409862,0.184416667 160.975613,0.184416667 C161.315492,0.184416667 161.608225,0.211916667 161.853384,0.266916667 C162.098543,0.322333333 162.302556,0.39025 162.464138,0.4715 C162.626148,0.55275 162.804017,0.656083333 162.998173,0.782333333 C163.245903,0.934 163.434915,1.01025 163.563924,1.01025 C163.666787,1.01025 163.744793,0.954 163.798796,0.841083333 C163.8528,0.728583333 163.896088,0.549 163.928233,0.302333333 L164.308401,0.302333333 C164.254826,0.9315 164.227395,2.02691667 164.227395,3.58941667 L163.847228,3.58941667 C163.804368,3.039 163.681788,2.53025 163.47949,2.064 C163.276762,1.59733333 162.9806,1.21858333 162.589718,0.92775 C162.198835,0.636916667 161.711946,0.491083333 161.129908,0.491083333 C160.741169,0.491083333 160.393575,0.569833333 160.086269,0.726916667 C159.778535,0.884416667 159.538948,1.10441667 159.366222,1.38775 C159.193497,1.67066667 159.107349,1.99566667 159.107349,2.36275 C159.107349,2.94483333 159.288217,3.414 159.649098,3.77025 C160.010407,4.1265 160.432577,4.44775 160.91518,4.73358333 C161.397783,5.01941667 161.722661,5.21191667 161.889815,5.3115 C162.585432,5.73608333 163.135324,6.10441667 163.539922,6.4165 C163.94452,6.72858333 164.268112,7.09025 164.510699,7.5015 C164.753287,7.91275 164.87458,8.3915 164.87458,8.9365 C164.87458,9.59691667 164.71857,10.1565 164.405264,10.6156667 C164.092815,11.074 163.670645,11.4185833 163.13961,11.6494167 C162.608576,11.88025 162.01368,11.99525 161.356209,11.99525 C160.827746,11.99525 160.393575,11.9415 160.053696,11.8344167 C159.714245,11.7269167 159.393224,11.5815 159.09149,11.3981667 C158.843331,11.2456667 158.654319,11.1698333 158.524882,11.1698333 C158.422447,11.1698333 158.344442,11.2265 158.290438,11.339 C158.236435,11.4519167 158.193146,11.6310833 158.161001,11.87775 L157.780834,11.87775 C157.824122,11.2906667 157.845124,10.0035833 157.845124,8.0165 L158.22572,8.0165 C158.301153,9.10733333 158.576314,9.989 159.050773,10.66275 Z M184.562459,10.66275 C185.036918,11.3360833 185.768108,11.6731667 186.754315,11.6731667 C187.131911,11.6731667 187.483791,11.5969167 187.809955,11.44525 C188.136548,11.2931667 188.400565,11.0556667 188.602864,10.7335833 C188.804734,10.4110833 188.906312,10.0085833 188.906312,9.52608333 C188.906312,9.11191667 188.802591,8.7415 188.59472,8.414 C188.387278,8.08566667 188.105689,7.78608333 187.749523,7.51316667 C187.393357,7.24066667 186.918897,6.9315 186.325716,6.58566667 C185.667816,6.20275 185.139782,5.85941667 184.740327,5.55525 C184.341301,5.25108333 184.013852,4.88816667 183.757549,4.46608333 C183.501247,4.044 183.373524,3.54733333 183.373524,2.97608333 C183.373524,2.36775 183.515391,1.854 183.798266,1.43483333 C184.081142,1.01525 184.458738,0.702333333 184.930625,0.49525 C185.402513,0.288166667 185.921547,0.184416667 186.487726,0.184416667 C186.827177,0.184416667 187.11991,0.211916667 187.365498,0.266916667 C187.610657,0.322333333 187.814241,0.39025 187.976252,0.4715 C188.137834,0.55275 188.315702,0.656083333 188.509858,0.782333333 C188.758017,0.934 188.9466,1.01025 189.076037,1.01025 C189.178901,1.01025 189.256478,0.954 189.310481,0.841083333 C189.364485,0.728583333 189.407773,0.549 189.439918,0.302333333 L189.820514,0.302333333 C189.766511,0.9315 189.73908,2.02691667 189.73908,3.58941667 L189.358913,3.58941667 C189.316053,3.039 189.193474,2.53025 188.991175,2.064 C188.788876,1.59733333 188.492285,1.21858333 188.101403,0.92775 C187.71052,0.636916667 187.223631,0.491083333 186.641594,0.491083333 C186.252854,0.491083333 185.90526,0.569833333 185.597954,0.726916667 C185.290649,0.884416667 185.050633,1.10441667 184.877908,1.38775 C184.705611,1.67066667 184.619462,1.99566667 184.619462,2.36275 C184.619462,2.94483333 184.799903,3.414 185.160783,3.77025 C185.522521,4.1265 185.944691,4.44775 186.427294,4.73358333 C186.909897,5.01941667 187.234346,5.21191667 187.4015,5.3115 C188.097117,5.73608333 188.647438,6.10441667 189.052036,6.4165 C189.456205,6.72858333 189.779797,7.09025 190.022385,7.5015 C190.2654,7.91275 190.386694,8.3915 190.386694,8.9365 C190.386694,9.59691667 190.230255,10.1565 189.917378,10.6156667 C189.6045,11.074 189.18233,11.4185833 188.651296,11.6494167 C188.120261,11.88025 187.525794,11.99525 186.867894,11.99525 C186.339431,11.99525 185.90526,11.9415 185.565809,11.8344167 C185.22593,11.7269167 184.904909,11.5815 184.603176,11.3981667 C184.355017,11.2456667 184.166004,11.1698333 184.036567,11.1698333 C183.934132,11.1698333 183.856127,11.2265 183.802552,11.339 C183.748549,11.4519167 183.70526,11.6310833 183.672687,11.87775 L183.292519,11.87775 C183.335808,11.2906667 183.357237,10.0035833 183.357237,8.0165 L183.737405,8.0165 C183.812838,9.10733333 184.087999,9.989 184.562459,10.66275 Z"/>
    <path fill="#9E9E9E" d="M56.7678745,8.249 L56.7035846,8.7865 C55.9963959,7.87775 56.3131307,6.96983333 56.3131307,6.96983333 C56.7507306,7.624 57.7665108,7.69483333 57.7665108,7.69483333 L57.2089032,7.85316667 C57.2089032,7.85316667 57.7772258,8.50441667 58.5615624,8.50441667 C60.4559712,8.50441667 61.111728,7.25191667 61.111728,6.38358333 C61.111728,5.98775 61.0298656,5.62108333 60.8712838,5.27983333 C60.7131307,4.94191667 60.4816871,4.66691667 60.1816676,4.46275 C59.8773622,4.25858333 59.5126242,4.15441667 59.0930255,4.15441667 C58.6258523,4.15441667 58.2015391,4.27108333 57.8153711,4.50441667 C57.4343464,4.73775 57.0996104,5.02108333 56.8167349,5.35858333 C56.5295733,5.69191667 56.1828365,6.14608333 55.7756673,6.72108333 L55.4970777,7.109 C55.1709137,7.56316667 54.2279953,9.28775 52.436879,9.28775 C51.4511007,9.28775 50.0277226,8.74608333 50.0277226,6.24233333 C50.0277226,5.08358333 50.696766,3.46691667 52.3640171,3.46691667 C53.4312293,3.46691667 54.0398402,3.90441667 54.3827197,4.38775 L54.4470095,3.85025 C55.1537697,4.759 54.8370349,5.66691667 54.8370349,5.66691667 C54.3998636,5.01275 53.3836548,4.94191667 53.3836548,4.94191667 L53.9408338,4.784 C53.5636665,4.57108333 53.054062,4.40858333 52.3640171,4.40858333 C50.6581921,4.40858333 50.3067407,5.40441667 50.3067407,6.41275 C50.3067407,6.73775 50.5038964,8.11733333 51.9564192,8.11733333 C53.280791,8.11733333 53.7093902,7.3715 53.9712644,7.06275 C54.2369959,6.75441667 55.7623807,4.53358333 56.0452562,4.17941667 C56.3324177,3.8215 56.6757257,3.51733333 57.078609,3.26275 C57.4814923,3.00858333 57.9358075,2.87941667 58.441126,2.87941667 C59.0158777,2.87941667 59.5259108,3.03775 59.971654,3.34608333 C60.4173972,3.65858333 60.7688486,4.08358333 61.0174362,4.62941667 C61.2660238,5.17108333 61.3903176,5.78775 61.3903176,6.47108333 C61.3903176,7.66858333 60.8447107,9.30025 58.6987142,9.30025 C57.6165011,9.30025 56.7678745,8.249 56.7678745,8.249"/>
  </g>
</svg>
