<svg xmlns="http://www.w3.org/2000/svg" viewBox="0 0 178.56 31.03"><defs><style>.cls-1{fill:#fff;}</style></defs><title>forever-21</title><g id="Capa_2" data-name="Capa 2"><g id="Layer_1" data-name="Layer 1"><polygon class="cls-1" points="0.03 1.19 12.28 1.19 12.28 5.03 4.31 5.03 4.31 13.44 11.56 13.44 11.56 17.28 4.31 17.28 4.31 30.72 0 30.72 0.03 1.19"/><path class="cls-1" d="M31.94,16c0,6.16-.44,11.15-4.13,11.15s-4.12-5-4.12-11.15.5-11.16,4.12-11.16S31.94,9.81,31.94,16ZM27.84.84c-7.38,0-8.4,6.76-8.4,15.1S20.39,31,27.84,31s8.41-6.76,8.41-15.09S35.36.84,27.84.84Z"/><path class="cls-1" d="M58.84,9.05c0,2.42-.59,4.64-2.43,6a6.91,6.91,0,0,1-3.25,1.25l7,13.81.09.57-4.56,0L49.22,17V30.69H44.89l0-13.74V1.19l6.4,0C58.22,1.18,58.84,6.47,58.84,9.05Zm-5.09-3a3.24,3.24,0,0,0-1.94-1H49.19v8.89h2a2.72,2.72,0,0,0,2.5-1.33,6.74,6.74,0,0,0,.78-1.95V7.72A3.4,3.4,0,0,0,53.75,6.08Z"/><path class="cls-1" d="M143.17,9.05c0,2.42-.59,4.64-2.42,6a7,7,0,0,1-3.26,1.25l7,13.81.09.57-4.56,0L133.55,17V30.69h-4.33V1.19l6.39,0C142.55,1.18,143.17,6.47,143.17,9.05Zm-5.09-3a3.24,3.24,0,0,0-1.94-1h-2.62v8.89h2a2.72,2.72,0,0,0,2.5-1.33,6.43,6.43,0,0,0,.78-1.95V7.72A3.29,3.29,0,0,0,138.08,6.08Z"/><polygon class="cls-1" points="67.19 1.16 79.19 1.16 79.19 5.06 71.25 5.06 71.25 13.44 78.47 13.44 78.47 17.28 71.25 17.28 71.25 26.88 79.19 26.88 79.19 30.75 67.19 30.75 67.19 1.16"/><polygon class="cls-1" points="108.97 1.13 120.97 1.13 120.97 5.03 113.03 5.03 113.03 13.41 120.25 13.41 120.25 17.25 113.03 17.25 113.03 26.84 120.97 26.84 120.97 30.72 108.97 30.72 108.97 1.13"/><polygon class="cls-1" points="85.41 1.16 89.5 1.16 93.56 20.16 97.42 1.16 101.75 1.16 95.28 30.72 91.69 30.72 85.41 1.16"/><polygon class="cls-1" points="171.1 1.17 178.56 1.17 178.56 30.71 174.69 30.71 174.69 5.02 171.1 5.02 171.1 1.17"/><path class="cls-1" d="M159.36,10.53h-4.08V7.17a8.42,8.42,0,0,1,1.39-4.37A6.53,6.53,0,0,1,162.25,0a6.91,6.91,0,0,1,6.69,5.39,12.85,12.85,0,0,1,.18,2.28,15.51,15.51,0,0,1-.26,3c-.44,2.5-6.88,14.14-8,15.94h7.62v4.08H154.55s9.77-18.38,10.14-20.87a10,10,0,0,0,.11-2.35,7.23,7.23,0,0,0-.21-1.56,2.37,2.37,0,0,0-2.48-2c-1.89,0-2.73,1.91-2.77,3.85C159.33,8.08,159.36,10.53,159.36,10.53Z"/></g></g></svg>