<svg xmlns="http://www.w3.org/2000/svg" width="95" height="93" viewBox="0 0 95 93">
  <g fill="#FFE1E7" stroke="#FFB4C3" stroke-width="4.138">
    <path d="M80.6137975 49.6079406L77.7067 33.2909603 89.9325172 21.8185809 73.0276334 19.453851 65.3793103 4.5351362 57.7309873 19.453851 40.8261035 21.8185809 53.0519207 33.2909603 50.1448232 49.6079406 65.3793103 41.8976663 80.6137975 49.6079406zM29.7115614 55.5018689L27.8726382 45.166094 35.5768936 37.9266445 24.921006 36.4339936 20.070572 26.9597387 15.220138 36.4339936 4.56425044 37.9266445 12.2685057 45.166094 10.4295826 55.5018689 20.070572 50.615763 29.7115614 55.5018689zM54.5391476 88.7161546L52.7002245 78.3803797 60.4044798 71.1409302 49.7485922 69.6482793 44.8981582 60.1740244 40.0477242 69.6482793 29.3918366 71.1409302 37.096092 78.3803797 35.2571688 88.7161546 44.8981582 83.8300487 54.5391476 88.7161546z"/>
  </g>
</svg>
