<svg xmlns="http://www.w3.org/2000/svg" width="96" height="88" viewBox="0 0 96 88">
  <g fill="none">
    <g transform="translate(16)">
      <rect width="80" height="53" fill="#FFB4C3" rx="6.667"/>
      <path fill="#FFE1E7" d="M13.3333333,4.96875 L66.6666667,4.96875 L66.6666667,6.58333333 C66.6666667,10.2652317 69.651435,13.25 73.3333333,13.25 L75,13.25 L75,42.7317352 L73.3333333,42.7317352 C69.651435,42.7317352 66.6666667,45.7165036 66.6666667,49.3984019 L66.6666667,49.6875 L13.3333333,49.6875 L13.3333333,49.3984019 C13.3333333,45.7165036 10.348565,42.7317352 6.66666667,42.7317352 L5,42.7317352 L5,13.25 L6.66666667,13.25 C10.348565,13.25 13.3333333,10.2652317 13.3333333,6.58333333 L13.3333333,4.96875 Z"/>
      <path fill="#FFB4C3" d="M37.5,36.4375 L35,36.4375 C33.6192881,36.4375 32.5,35.3252074 32.5,33.953125 C32.5,32.5810426 33.6192881,31.46875 35,31.46875 L43.3333333,31.46875 C43.7935706,31.46875 44.1666667,31.0979858 44.1666667,30.640625 C44.1666667,30.1832642 43.7935706,29.8125 43.3333333,29.8125 L36.6666667,29.8125 C33.4450056,29.8125 30.8333333,27.2171507 30.8333333,24.015625 C30.8333333,20.8140993 33.4450056,18.21875 36.6666667,18.21875 L37.5,18.21875 L37.5,17.390625 C37.5,16.0185426 38.6192881,14.90625 40,14.90625 C41.3807119,14.90625 42.5,16.0185426 42.5,17.390625 L42.5,18.21875 L45,18.21875 C46.3807119,18.21875 47.5,19.3310426 47.5,20.703125 C47.5,22.0752074 46.3807119,23.1875 45,23.1875 L36.6666667,23.1875 C36.2064294,23.1875 35.8333333,23.5582642 35.8333333,24.015625 C35.8333333,24.4729858 36.2064294,24.84375 36.6666667,24.84375 L43.3333333,24.84375 C46.5549944,24.84375 49.1666667,27.4390993 49.1666667,30.640625 C49.1666667,33.8421507 46.5549944,36.4375 43.3333333,36.4375 L42.5,36.4375 L42.5,37.265625 C42.5,38.6377074 41.3807119,39.75 40,39.75 C38.6192881,39.75 37.5,38.6377074 37.5,37.265625 L37.5,36.4375 Z"/>
    </g>
    <g transform="translate(0 35)">
      <rect width="80" height="53" fill="#FFB4C3" rx="6.667"/>
      <path fill="#FFE1E7" d="M13.3333333,4.96875 L66.6666667,4.96875 L66.6666667,6.58333333 C66.6666667,10.2652317 69.651435,13.25 73.3333333,13.25 L75,13.25 L75,42.7317352 L73.3333333,42.7317352 C69.651435,42.7317352 66.6666667,45.7165036 66.6666667,49.3984019 L66.6666667,49.6875 L13.3333333,49.6875 L13.3333333,49.3984019 C13.3333333,45.7165036 10.348565,42.7317352 6.66666667,42.7317352 L5,42.7317352 L5,13.25 L6.66666667,13.25 C10.348565,13.25 13.3333333,10.2652317 13.3333333,6.58333333 L13.3333333,4.96875 Z"/>
      <path fill="#FFB4C3" d="M37.5,36.4375 L35,36.4375 C33.6192881,36.4375 32.5,35.3252074 32.5,33.953125 C32.5,32.5810426 33.6192881,31.46875 35,31.46875 L43.3333333,31.46875 C43.7935706,31.46875 44.1666667,31.0979858 44.1666667,30.640625 C44.1666667,30.1832642 43.7935706,29.8125 43.3333333,29.8125 L36.6666667,29.8125 C33.4450056,29.8125 30.8333333,27.2171507 30.8333333,24.015625 C30.8333333,20.8140993 33.4450056,18.21875 36.6666667,18.21875 L37.5,18.21875 L37.5,17.390625 C37.5,16.0185426 38.6192881,14.90625 40,14.90625 C41.3807119,14.90625 42.5,16.0185426 42.5,17.390625 L42.5,18.21875 L45,18.21875 C46.3807119,18.21875 47.5,19.3310426 47.5,20.703125 C47.5,22.0752074 46.3807119,23.1875 45,23.1875 L36.6666667,23.1875 C36.2064294,23.1875 35.8333333,23.5582642 35.8333333,24.015625 C35.8333333,24.4729858 36.2064294,24.84375 36.6666667,24.84375 L43.3333333,24.84375 C46.5549944,24.84375 49.1666667,27.4390993 49.1666667,30.640625 C49.1666667,33.8421507 46.5549944,36.4375 43.3333333,36.4375 L42.5,36.4375 L42.5,37.265625 C42.5,38.6377074 41.3807119,39.75 40,39.75 C38.6192881,39.75 37.5,38.6377074 37.5,37.265625 L37.5,36.4375 Z"/>
    </g>
  </g>
</svg>
