<svg xmlns="http://www.w3.org/2000/svg" width="96" height="88" viewBox="0 0 96 88">
  <g fill="none">
    <path fill="#FFD2DB" d="M2.7159915,18.0538331 C2.7159915,18.0538331 1.13147606,16.8097313 0.87515738,14.3649899 C1.46935068,11.9202486 6.01318172,9.06727417 6.01318172,9.06727417 C2.12179821,8.6714589 4.65669004,7.09518279 3.39174073,6.54181751 C2.12179821,5.99233278 3.89855265,3.86269139 3.13542206,3.15100002 C2.37811688,2.44474138 3.89855265,0 3.89855265,0 C4.65669004,1.49944139 8.9666719,0 10.6618704,0 C12.3520757,0 15.8182032,1.73305001 15.8182032,1.73305001 C11.6763265,5.36213278 11.86274,14.0553227 11.86274,14.0553227 C22.2552972,11.2194227 28.5825403,5.04703277 28.5825403,5.04703277 C30.609788,5.9108414 32.7244171,8.04125889 32.7244171,8.04125889 C33.906146,10.0133503 36.4410379,14.1911417 37.0352312,17.3421417 C37.623599,20.4985745 40.8392333,20.5746331 40.8392333,20.5746331 C40.3324214,22.622783 38.2993483,21.0472831 36.6099752,22.7803331 C34.9206022,24.519592 33.4817223,21.7589745 32.7244171,23.5735158 C31.9612865,25.3826245 29.4263947,24.6763658 29.4263947,24.6763658 C29.6768879,22.1501331 27.3991469,20.1019831 27.3991469,20.1019831 C22.9019193,23.6876038 22.0106294,29.5984452 21.8475175,31.2018851 C20.3736851,32.1689161 17.0007644,34.0051886 12.8122843,34.0051886 C14.0064962,33.7933109 14.8744845,33.3912868 15.3405185,32.8099816 C15.759949,32.2884368 15.8356795,31.6419386 15.5502337,30.9356799 C15.2531371,30.1913919 14.5540861,29.7777263 13.64532,29.8165316 C12.2871638,29.8654265 10.5520195,30.9240383 9.4684906,32.8371455 C9.14809227,31.2562126 8.34335149,30.3264349 7.61517343,29.9686489 C7.15496491,29.7451296 6.69475638,29.7241747 6.35688175,29.919754 C5.90832408,30.1696609 5.70443422,30.5934161 5.78599017,31.0986626 C5.87919695,31.6962661 6.35688175,32.3699281 7.02098014,32.9349351 C5.59375116,32.2015127 4.70246122,31.0389023 4.31215779,30.4358661 L4.31798321,30.4304333 C3.39174073,26.7245159 2.7159915,18.0538331 2.7159915,18.0538331 Z M15.0084693,31.1256713 C15.2181845,31.6580816 15.1715811,32.1144333 14.8744845,32.4838609 C14.2045606,33.3205057 12.2871638,33.7279627 9.71315843,33.5975764 C10.6618704,31.5494264 12.369552,30.4085471 13.6686216,30.3596522 C14.1346556,30.343354 14.7404997,30.4628746 15.0084693,31.1256713 Z M63.7455511,60.3058716 C65.0096682,63.7719717 57.4890453,66.374263 57.9958573,72.0522719 C58.5026691,77.7295047 49.8802088,80.5654046 46.4140813,85.7707635 C42.9479538,90.9699136 35.1710122,85.1405635 26.9738078,87.3462636 C18.7774356,89.5519636 13.9598096,82.6958221 8.54715812,82.8525961 C3.13533884,83.0101461 0.344960538,80.0112633 0.344960538,80.0112633 C3.13533884,77.2568547 1.78384037,66.6133044 0.263404596,54.3950302 C-1.05314132,43.8329713 2.9372744,33.6248178 4.03827963,31.0496902 C4.76146445,32.0710489 6.32767142,33.755204 8.89668359,34.0811696 C8.86173105,34.1789592 8.82677849,34.2821816 8.79182595,34.3908368 C8.14520384,36.5041799 6.60729179,38.1503058 5.2499679,39.6008523 C3.9858508,40.9536092 2.89649644,42.1162196 2.79163879,43.3657541 L3.36835582,43.4092161 C3.4615626,42.3397387 4.49266273,41.2361127 5.68687474,39.9594144 C6.9917698,38.5631955 8.45977676,36.9931282 9.21208871,34.972142 C9.94026676,37.5527023 12.5617078,39.6171506 15.1015928,41.610973 C17.2628252,43.3168592 19.3075492,44.9257319 20.0532036,46.723975 L20.5949681,46.5283957 C19.7968848,44.5997663 17.6997321,42.9474317 15.4744199,41.1980834 C12.7947247,39.090173 10.0276481,36.9116368 9.63651249,34.2006902 C15.6724843,35.5371489 20.7231273,32.6414885 22.4241513,31.4843109 C40.1226229,27.8389299 49.5955952,42.1433834 54.1102992,46.3537714 C58.6716064,50.6083974 63.8911868,47.6141714 63.8911868,47.6141714 C66.2330074,51.5536974 62.4756086,56.8397716 63.7455511,60.3058716 Z M7.34753679,30.4518539 C8.02328602,30.7832522 8.7805912,31.7448506 8.97865563,33.4616023 C7.61550632,32.9672212 6.47954856,31.8154763 6.36304007,31.0222937 C6.31643667,30.7289246 6.41546889,30.5224798 6.66013671,30.381228 C6.72421638,30.3486315 6.7999469,30.3269005 6.88732827,30.3269005 C7.02131302,30.3269005 7.17859949,30.3703625 7.34753679,30.4518539 Z"/>
    <g transform="translate(32 13)">
      <circle cx="27.534" cy="27.534" r="22.528" fill="#FFF0F3"/>
      <path fill="#FFB4C3" d="M50.993379,42.2924752 L62.2149663,53.2795668 C64.1905505,55.2138675 64.2240173,58.3834554 62.2897166,60.3590396 C60.3554159,62.3346237 57.185828,62.3680905 55.2102439,60.4337899 L44.2143167,49.6676428 C39.5931279,53.1518935 33.8422146,55.2176406 27.6088203,55.2176406 C12.3608899,55.2176406 0,42.8567507 0,27.6088203 C0,12.3608899 12.3608899,0 27.6088203,0 C42.8567507,0 55.2176406,12.3608899 55.2176406,27.6088203 C55.2176406,33.0048991 53.6695923,38.0394118 50.993379,42.2924752 Z M27.6088203,45.2051961 C37.3270303,45.2051961 45.2051961,37.3270303 45.2051961,27.6088203 C45.2051961,17.8906103 37.3270303,10.0124444 27.6088203,10.0124444 C17.8906103,10.0124444 10.0124444,17.8906103 10.0124444,27.6088203 C10.0124444,37.3270303 17.8906103,45.2051961 27.6088203,45.2051961 Z"/>
    </g>
  </g>
</svg>
