<svg xmlns="http://www.w3.org/2000/svg" xmlns:xlink="http://www.w3.org/1999/xlink" width="269" height="287" viewBox="0 0 269 287">
  <defs>
    <linearGradient id="feature-04-a" x1="50%" x2="50%" y1="0%" y2="100%">
      <stop offset="0%" stop-color="#FFB4C3"/>
      <stop offset="100%" stop-color="#FF6A88"/>
    </linearGradient>
    <linearGradient id="feature-04-b" x1="32.893%" x2="55.462%" y1="42.016%" y2="89.332%">
      <stop offset="0%" stop-color="#CC546C"/>
      <stop offset="100%" stop-color="#FF6A88"/>
    </linearGradient>
    <polygon id="feature-04-c" points="0 .537 72.165 .537 72.165 79.447 0 79.447"/>
    <linearGradient id="feature-04-e" x1="21.935%" x2="90.799%" y1="0%" y2="90.714%">
      <stop offset="0%" stop-color="#FFD2DB"/>
      <stop offset="100%" stop-color="#FCEDF1"/>
    </linearGradient>
    <polygon id="feature-04-f" points=".94 .512 23.332 .512 23.332 97 .94 97"/>
    <polygon id="feature-04-h" points=".939 .329 20.373 .329 20.373 19 .939 19"/>
    <linearGradient id="feature-04-j" x1="27.801%" x2="50%" y1="0%" y2="100%">
      <stop offset="0%" stop-color="#FFF"/>
      <stop offset="100%" stop-color="#F5F5F5"/>
    </linearGradient>
    <linearGradient id="feature-04-k" x1="0%" x2="93.049%" y1="0%" y2="81.957%">
      <stop offset="0%" stop-color="#E55F7A"/>
      <stop offset="100%" stop-color="#FF7994"/>
    </linearGradient>
  </defs>
  <g fill="none" fill-rule="evenodd" transform="translate(0 -1)">
    <path fill="url(#feature-04-a)" fill-opacity=".5" fill-rule="nonzero" d="M170.613252,28.9846619 C98.3417674,39.7053651 63.1542674,73.0823182 53.7030955,98.0920838 C44.2519236,123.101849 72.2284861,122.013959 76.2929393,131.666303 C80.3573924,141.318646 -2.71292011,169.785443 0.0683298919,193.150678 C2.84957989,216.515912 43.4687205,269.275678 145.132783,222.607709 C246.796846,175.93974 281.937471,132.138959 264.367158,122.478803 C246.796846,112.818646 163.070283,146.865521 178.316377,122.478803 C193.562471,98.0920838 242.884736,18.2639588 170.613252,28.9846619 Z"/>
    <path fill="#E2E2E2" fill-rule="nonzero" d="M153.556641,267.623047 C130.326172,262.681641 63.1347656,257.681641 57.8222656,267.623047 C52.5097656,277.564453 78.5976562,288.691406 97.8164062,284.75 C117.035156,280.808594 129.638672,279.722656 141.597656,284.75 C153.556641,289.777344 222.265625,288.095172 229.761719,273.72825 C211.738281,267.623047 176.787109,272.564453 153.556641,267.623047 Z"/>
    <g transform="translate(39)">
      <path fill="#CE546D" d="M69.1647,23.963 C69.1647,23.963 56.1647,27.463 58.4147,40.463 C60.6647,53.463 74.5697,58.538 70.9817,64.735 C67.3937,70.933 59.2337,100.793 79.7227,104.979 L88.9617,74.947 L83.9147,42.213 L69.1647,23.963 Z"/>
      <path fill="url(#feature-04-b)" d="M74.4147,96.6295 C59.9147,127.8095 94.3087,129.6525 97.4147,122.2125 C102.8797,109.1225 108.8537,103.1755 116.9147,117.7125 C121.4137,125.8265 142.3317,113.0345 138.6647,105.3675 C134.9977,97.7015 139.7477,94.6445 148.0817,97.9705 C156.4147,101.2965 188.6767,105.2445 180.7047,92.9625 C172.9147,80.9625 187.4147,72.9625 187.0817,81.9625 C187.0817,81.9625 194.4147,69.9625 185.4147,67.6295 C176.4147,65.2965 160.0817,64.9625 159.7477,73.9625 C159.4147,82.9625 146.4147,76.2965 146.4147,71.6295 C146.4147,66.9625 152.2987,66.0485 153.0817,56.3305 C155.1647,30.4625 63.9147,-4.2875 67.9147,28.7125 C67.9147,28.7125 68.2467,40.9555 77.4147,51.9625 C87.7477,64.3695 74.4147,96.6295 74.4147,96.6295"/>
      <g transform="translate(0 .463)">
        <mask id="feature-04-d" fill="#fff">
          <use xlink:href="#feature-04-c"/>
        </mask>
        <path fill="#FCEDF1" d="M36.9167,50.83 C36.9167,50.83 33.6597,41.407 25.8657,34.776 C21.0067,30.643 18.4997,25.018 17.2997,21.367 C17.8427,20.458 18.7677,18.629 18.2377,17.423 C17.5097,15.766 15.9627,10.604 16.0587,9.047 C16.1547,7.49 15.1467,8.602 15.0167,9.629 C14.8857,10.655 15.5597,14.538 15.3347,15.155 C15.3347,15.155 12.7487,13.039 12.4167,11.21 C12.0857,9.381 12.5367,6.33 13.1877,4.828 C13.8377,3.326 13.1117,1.815 12.6867,2.699 C12.2607,3.584 9.8557,7.074 9.9417,10.818 C9.9417,10.818 9.0327,6.823 9.2847,4.185 C9.5377,1.547 8.6637,-0.108 8.2377,0.777 C7.8127,1.662 6.8887,8.261 7.2677,10.04 C7.2677,10.04 5.7837,6.785 6.3237,3.85 C6.8647,0.915 5.5367,0.204 5.2007,1.204 C4.8647,2.204 3.9037,6.316 4.6537,9.436 C4.6537,9.436 2.0497,7.602 1.2807,5.127 C0.8807,3.845 -0.1193,3.509 0.0117,4.444 C0.1437,5.378 0.3647,8.389 2.7827,11.513 C4.8027,14.122 9.6857,18.934 11.2427,20.452 C12.6717,23.604 24.0127,48.44 29.2387,54.32 C34.8227,60.601 64.4867,79.447 64.4867,79.447 L72.1647,70.373 L36.9167,50.83 Z" mask="url(#feature-04-d)"/>
      </g>
      <path fill="url(#feature-04-e)" d="M166.0485,141.5308 C165.5255,140.7458 164.0205,138.1288 160.4865,136.3618 C156.9535,134.5948 148.3315,131.7548 148.3315,131.7548 C148.3315,131.7548 138.6245,129.0528 131.9945,121.2628 C125.3645,113.4728 115.9445,110.2128 115.9445,110.2128 L97.8745,77.6228 C96.9245,75.9028 95.4445,74.5428 93.6445,73.7428 C92.9045,73.4128 91.9245,73.0128 90.8845,72.6028 C89.5045,72.0528 88.0345,71.5028 86.9445,71.0928 C85.9345,70.7128 85.2445,70.4628 85.2445,70.4628 C85.2445,70.4628 85.7145,58.5728 82.9145,46.9628 L76.9145,48.0328 C76.9145,48.0328 81.0445,64.6328 73.9145,69.6328 L72.4945,69.5728 L69.4645,69.4428 L51.0845,82.6628 C51.0845,82.6628 50.7445,89.3228 55.0845,93.9928 L57.1645,134.2928 L76.4145,141.2928 C76.4145,141.2928 71.7445,120.6328 76.4145,111.2928 C78.0545,108.0128 81.0145,102.5528 84.1545,96.8428 C86.0745,93.3728 88.0645,89.8028 89.8645,86.5828 C95.2245,94.8428 107.5945,113.5728 112.4545,117.8928 C117.3465,122.2398 135.3665,130.8208 143.0945,134.4018 C143.0565,135.5048 143.1715,137.0278 143.9975,137.7358 C145.3715,138.9138 149.0035,142.8948 149.5925,144.3388 C150.1815,145.7838 150.6065,144.3438 150.2785,143.3628 C149.9515,142.3818 147.6615,139.1758 147.5965,138.5208 C147.5965,138.5208 150.8445,139.3058 151.9365,140.8108 C153.0275,142.3158 153.9445,145.2598 154.0085,146.8968 C154.0745,148.5318 155.3835,149.5788 155.3835,148.5978 C155.3835,147.6158 156.0375,143.4278 154.3365,140.0918 C154.3365,140.0918 156.8885,143.2978 157.8045,145.7838 C158.7205,148.2708 160.2255,149.3828 160.2255,148.4018 C160.2255,147.4198 158.1965,141.0728 157.0845,139.6338 C157.0845,139.6338 159.8325,141.9238 160.6175,144.8018 C161.4025,147.6818 162.9075,147.7468 162.7775,146.6998 C162.6465,145.6528 161.7305,141.5308 159.7015,139.0448 C159.7015,139.0448 162.8425,139.5678 164.6095,141.4658 C165.5255,142.4468 166.5715,142.3158 166.0485,141.5308"/>
      <g transform="translate(37 182.463)">
        <mask id="feature-04-g" fill="#fff">
          <use xlink:href="#feature-04-f"/>
        </mask>
        <path fill="url(#feature-04-e)" d="M17.4191,78.3291 C17.4191,78.3291 14.3281,69.6371 15.2431,59.4441 C16.1571,49.2531 11.8781,40.2481 11.8781,40.2481 L23.3321,1.6061 L8.4971,0.5121 C8.4971,0.5121 0.5381,34.7431 0.9561,43.1381 C1.3731,51.5321 11.9731,80.2541 11.9731,80.2541 C11.9731,80.2541 6.5811,92.6671 0.9401,97.0001229 C0.9401,97.0001229 11.7271,97.0831 16.7271,87.2501 L17.2401,91.7251 L18.4151,91.3331 C18.4151,91.3331 23.4241,81.9911 17.4191,78.3291" mask="url(#feature-04-g)"/>
      </g>
      <g transform="translate(37 260.463)">
        <mask id="feature-04-i" fill="#fff">
          <use xlink:href="#feature-04-h"/>
        </mask>
        <path fill="#CE546D" d="M14.5813,6.583 C14.5813,6.583 10.0813,14.417 7.2123,11.312 C5.3743,14.293 3.1773,17.281 0.9393,19.0000229 C0.9393,19.0000229 11.7273,19.083 16.7273,9.25 L17.2403,13.725 L18.4143,13.333 C18.4143,13.333 23.4243,3.991 17.4193,0.329 L14.5813,6.583 Z" mask="url(#feature-04-i)"/>
      </g>
      <path fill="url(#feature-04-e)" d="M122.9118,245.2862 C122.9118,245.2862 115.1778,240.2562 109.7168,231.6022 C104.2548,222.9482 95.3878,218.3902 95.3878,218.3902 L81.0278,180.7322 L68.5758,188.8712 C68.5758,188.8712 83.0348,220.9022 88.4628,227.3192 C93.8918,233.7352 119.7528,250.1232 119.7528,250.1232 C119.7528,250.1232 123.0048,263.2592 121.1528,270.1272 C121.1528,270.1272 129.7748,263.6432 127.7778,252.7952 L130.9018,256.0392 L131.5988,255.0152 C131.5988,255.0152 129.9058,244.5512 122.9118,245.2862"/>
      <path fill="#CE546D" d="M124.4538,251.9786 C124.4538,251.9786 125.6348,260.9356 121.4698,260.2096 C121.8188,263.6946 121.8878,267.4036 121.1528,270.1266 C121.1528,270.1266 129.7748,263.6436 127.7778,252.7946 L130.9018,256.0396 L131.5988,255.0146 C131.5988,255.0146 129.9058,244.5506 122.9118,245.2866 L124.4538,251.9786 Z"/>
      <path fill="#FCEDF1" d="M68.6984,26.2638 C64.1554,30.9988 63.6194,43.6648 71.2704,54.7828 C72.9374,57.2038 76.0164,58.2138 78.8214,57.3358 C83.7134,55.8058 90.9044,51.8788 93.2334,41.8658 C96.8774,26.1908 78.7554,16.3628 68.6984,26.2638"/>
      <path fill="url(#feature-04-j)" d="M74.5659,128.6454 C100.0869,122.2964 120.7479,153.9634 130.4149,161.6304 C140.0819,169.2964 161.7479,166.9634 168.7479,141.2934 C182.1159,143.9634 184.9029,173.5194 173.9029,177.8524 C162.9029,182.1854 164.6159,193.5104 166.6159,204.5104 C168.6159,215.5104 148.0819,222.9634 135.7479,218.9634 C123.4149,214.9634 117.0819,231.9634 105.0809,236.9224 C93.0809,241.8824 74.0809,218.9634 67.7479,230.6304 C61.4149,242.2964 38.0809,235.6304 27.4149,227.6304 C25.6129,173.2964 56.9089,129.3394 56.9089,129.3394 L55.085,93.9929 C50.745,89.3229 51.085,82.6629 51.085,82.6629 L69.465,69.4429 L72.495,69.5729 C72.495,69.5729 58.8,81.5979 66.295,84.3429 C73.79,87.0879 86.945,71.0929 86.945,71.0929 L90.884,72.6029 C90.884,72.6029 80.905,82.6029 84.155,96.8429 C81.015,102.5529 78.055,108.0129 76.415,111.2929 C74.2199057,115.683089 74.0883827,122.574308 74.5654844,128.645416 Z"/>
      <path fill="#CE546D" d="M67.9147,28.713 C67.9147,28.713 67.1757,23.827 68.9147,21.088 C70.6537,18.349 79.9147,16.213 79.9147,16.213 L92.6647,19.713 L110.1647,40.455 L101.9147,51.963 L88.8367,44.713 L78.9147,36.742 L69.6997,31.946 L67.9147,28.713 Z"/>
      <path fill="url(#feature-04-k)" d="M67.9147,28.713 C68.6647,33.713 77.8687,36.447 81.2667,40.455 C84.6647,44.463 76.6067,47.693 81.2667,50.463 C85.9267,53.233 94.5367,60.963 97.3507,55.213 C100.1647,49.463 112.3527,58.713 108.6337,64.963 C104.9147,71.213 102.9147,82.963 111.9147,88.963 C120.9147,94.963 127.9147,81.963 133.9147,83.213 C139.9147,84.463 135.4147,94.713 135.4147,94.713 C135.4147,94.713 141.6647,91.963 140.9147,86.963 C140.1647,81.963 140.4147,75.213 130.6647,75.213 C120.9147,75.213 117.6647,69.713 119.1647,64.213 C120.6647,58.713 126.4147,43.713 115.6647,38.713 C104.9147,33.713 100.3947,44.824 95.4047,42.768 C90.4147,40.713 95.3547,35.463 90.8847,33.713 C86.4147,31.963 70.6647,33.963 67.9147,28.713"/>
    </g>
  </g>
</svg>
