<svg xmlns="http://www.w3.org/2000/svg" width="64" height="56" viewBox="0 0 64 56">
  <g fill="none">
    <rect width="64" height="42.667" fill="#CC546C" rx="2.667"/>
    <path fill="#FFE1E7" d="M0,34.6666667 L64,34.6666667 L64,40 C64,41.4727593 62.8060927,42.6666667 61.3333333,42.6666667 L2.66666667,42.6666667 C1.19390733,42.6666667 1.06853942e-15,41.4727593 8.8817842e-16,40 L0,34.6666667 Z"/>
    <path fill="#FFB4C3" d="M24,42.6666667 L40,42.6666667 L42.0717301,50.9535871 C42.4493418,52.4640337 43.4681213,53.7340607 44.8606843,54.4303421 L45.4740971,54.7370485 C45.8034161,54.901708 45.936899,55.3021567 45.7722395,55.6314757 C45.6593115,55.8573317 45.4284694,56 45.1759547,56 L18.8240453,56 C18.4558555,56 18.1573787,55.7015232 18.1573787,55.3333333 C18.1573787,55.0808186 18.3000469,54.8499765 18.5259029,54.7370485 L19.1393157,54.4303421 C20.5318787,53.7340607 21.5506582,52.4640337 21.9282699,50.9535871 L24,42.6666667 Z"/>
    <g transform="translate(11.333 8)">
      <path fill="#FFF0F3" d="M1.33333333,0 L41.3333333,0 C42.069713,-1.3527075e-16 42.6666667,0.596953667 42.6666667,1.33333333 L42.6666667,26.6666667 L0,26.6666667 L0,1.33333333 C-9.01805001e-17,0.596953667 0.596953667,2.5777614e-15 1.33333333,2.44249065e-15 Z"/>
      <path fill="#FFE1E7" d="M1.33333333,0 L41.3333333,0 C42.069713,-1.3527075e-16 42.6666667,0.596953667 42.6666667,1.33333333 L42.6666667,5.33333333 L0,5.33333333 L0,1.33333333 C-9.01805001e-17,0.596953667 0.596953667,5.7935996e-16 1.33333333,4.4408921e-16 Z"/>
      <rect width="30.667" height="2.667" x="10" y="1.333" fill="#FFF" rx="1.333"/>
      <path fill="#FFB4C3" d="M2.66666667,3.33333333 C2.29847683,3.33333333 2,3.0348565 2,2.66666667 C2,2.29847683 2.29847683,2 2.66666667,2 C3.0348565,2 3.33333333,2.29847683 3.33333333,2.66666667 C3.33333333,3.0348565 3.0348565,3.33333333 2.66666667,3.33333333 Z M4.66666667,3.33333333 C4.29847683,3.33333333 4,3.0348565 4,2.66666667 C4,2.29847683 4.29847683,2 4.66666667,2 C5.0348565,2 5.33333333,2.29847683 5.33333333,2.66666667 C5.33333333,3.0348565 5.0348565,3.33333333 4.66666667,3.33333333 Z M6.66666667,3.33333333 C6.29847683,3.33333333 6,3.0348565 6,2.66666667 C6,2.29847683 6.29847683,2 6.66666667,2 C7.0348565,2 7.33333333,2.29847683 7.33333333,2.66666667 C7.33333333,3.0348565 7.0348565,3.33333333 6.66666667,3.33333333 Z"/>
    </g>
  </g>
</svg>
