<svg xmlns="http://www.w3.org/2000/svg" width="92" height="16" viewBox="0 0 92 16">
  <g fill="#FFCA00">
    <path d="M.493816636 3.28251511C.493816636 3.28251511.205722919 3.05631478.159119524 2.61181635.267154668 2.16731792 1.09330577 1.6485953 1.09330577 1.6485953.385781492 1.57662889.846670916 1.29003323.616680132 1.18942137.385781492 1.08951505.708827754.702307526.570076739.572909094.432384888.444498433.708827754 0 .708827754 0 .846670916.272625707 1.63030398 0 1.93852189 0 2.24583194 0 2.87603695.315100001 2.87603695.315100001 2.12296845.974933233 2.15686182 2.55551321 2.15686182 2.55551321 4.04641767 2.03989504 5.19682551.917642322 5.19682551.917642322 5.56541599 1.07469844 5.94989403 1.46204707 5.94989403 1.46204707 6.16475382 1.82060914 6.62564325 2.58020759 6.7336784 3.15311667 6.84065436 3.72701355 7.42531515 3.74084238 7.42531515 3.74084238 7.33316752 4.11323328 6.96351787 3.82677875 6.65635913 4.14187875 6.34920039 4.45810763 6.08758587 3.95617718 5.94989403 4.28609378 5.81114299 4.61502264 5.35025359 4.48661197 5.35025359 4.48661197 5.39579781 4.02729693 4.98166308 3.65490601 4.98166308 3.65490601 4.16398533 4.30683706 4.00193261 5.38153548 3.97227592 5.67307001 3.70430638 5.84889384 3.09104807 6.18276156 2.32950623 6.18276156 2.54663567 6.14423835 2.70445173 6.07114305 2.78918517 5.96545121 2.86544528 5.87062486 2.87921445 5.75307974 2.82731521 5.62466906 2.77329765 5.48934399 2.64619748 5.41413205 2.48096727 5.42118757 2.23402979 5.43007754 1.91854901 5.62255242 1.72154375 5.97039009 1.6632895 5.68294775 1.516973 5.51389725 1.38457699 5.44884526 1.30090271 5.40820538 1.21722843 5.4043954 1.15579668 5.43995528 1.07424074 5.48539289 1.03716986 5.56243929 1.05199821 5.6543023 1.0689449 5.76295747 1.15579668 5.88544148 1.27654184 5.98817001 1.01704566 5.85482048.85499295 5.64343678.784028689 5.53379384L.785087857 5.53280605C.616680132 4.85900289.493816636 3.28251511.493816636 3.28251511zM2.7288126 5.65921296C2.76694264 5.75601483 2.75846929 5.83898786 2.70445173 5.90615652 2.58264738 6.05827376 2.23402979 6.13235685 1.7660288 6.10865025 1.93852189 5.73625935 2.24900945 5.52882674 2.48520393 5.51993677 2.56993738 5.51697346 2.68009086 5.53870448 2.7288126 5.65921296zM11.5901002 10.9647039C11.8199397 11.5949039 10.4525537 12.0680478 10.5447013 13.1004131 10.6368489 14.1326372 9.06912888 14.6482554 8.43892387 15.5946843 7.80871887 16.5399843 6.39472949 15.4801025 4.90432869 15.8811388 3.41407921 16.2821752 2.53814721 15.035604 1.55402875 15.0641084.570061607 15.0927538.0627200978 14.5475024.0627200978 14.5475024.570061607 14.0467009.324334612 12.1115099.0478917448 9.89000549-.191480241 7.96963114.534049891 6.11360323.734232659 5.64539823.865720809 5.8310998 1.15048571 6.13730982 1.61757883 6.19657629 1.61122383 6.21435622 1.60486882 6.23312393 1.59851381 6.25287943 1.48094615 6.63712361 1.20132578 6.93641924.954539617 7.20015496.724700145 7.44611076.526635716 7.65749447.507570689 7.88468256L.612428331 7.89258475C.629375018 7.69813432.816847769 7.49747504 1.03397722 7.26534807 1.27123087 7.01149008 1.53814123 6.72602331 1.67492522 6.35857127 1.80732123 6.82776406 2.28394686 7.20311829 2.74574414 7.56563146 3.13869549 7.87579258 3.5104635 8.16831489 3.64603701 8.49526818L3.74453965 8.45970831C3.5994336 8.10904843 3.21813311 7.80862395 2.8135309 7.49056061 2.32631359 7.10730419 1.82320875 6.7112067 1.75209318 6.21830731 2.84954261 6.4612998 3.76784133 5.93481609 4.07711843 5.72442017 7.29502234 5.06162362 9.01738094 7.66243335 9.83823621 8.42795843 10.6675648 9.2015268 11.6165794 8.65712207 11.6165794 8.65712207 12.042365 9.37339953 11.3592016 10.3345039 11.5901002 10.9647039zM1.33591578 5.53670071C1.45877928 5.59695494 1.59647113 5.77179101 1.63248284 6.08392768 1.38463751 5.99404022 1.17809974 5.78463206 1.15691638 5.64041703 1.14844303 5.5870772 1.16644889 5.54954178 1.21093395 5.52385964 1.2225848 5.517933 1.23635398 5.51398191 1.2522415 5.51398191 1.27660237 5.51398191 1.30519991 5.52188409 1.33591578 5.53670071zM20.4938166 3.28251511C20.4938166 3.28251511 20.2057229 3.05631478 20.1591195 2.61181635 20.2671547 2.16731792 21.0933058 1.6485953 21.0933058 1.6485953 20.3857815 1.57662889 20.8466709 1.29003323 20.6166801 1.18942137 20.3857815 1.08951505 20.7088278.702307526 20.5700767.572909094 20.4323849.444498433 20.7088278 0 20.7088278 0 20.8466709.272625707 21.630304 0 21.9385219 0 22.2458319 0 22.876037.315100001 22.876037.315100001 22.1229684.974933233 22.1568618 2.55551321 22.1568618 2.55551321 24.0464177 2.03989504 25.1968255.917642322 25.1968255.917642322 25.565416 1.07469844 25.949894 1.46204707 25.949894 1.46204707 26.1647538 1.82060914 26.6256432 2.58020759 26.7336784 3.15311667 26.8406544 3.72701355 27.4253151 3.74084238 27.4253151 3.74084238 27.3331675 4.11323328 26.9635179 3.82677875 26.6563591 4.14187875 26.3492004 4.45810763 26.0875859 3.95617718 25.949894 4.28609378 25.811143 4.61502264 25.3502536 4.48661197 25.3502536 4.48661197 25.3957978 4.02729693 24.9816631 3.65490601 24.9816631 3.65490601 24.1639853 4.30683706 24.0019326 5.38153548 23.9722759 5.67307001 23.7043064 5.84889384 23.0910481 6.18276156 22.3295062 6.18276156 22.5466357 6.14423835 22.7044517 6.07114305 22.7891852 5.96545121 22.8654453 5.87062486 22.8792144 5.75307974 22.8273152 5.62466906 22.7732976 5.48934399 22.6461975 5.41413205 22.4809673 5.42118757 22.2340298 5.43007754 21.918549 5.62255242 21.7215437 5.97039009 21.6632895 5.68294775 21.516973 5.51389725 21.384577 5.44884526 21.3009027 5.40820538 21.2172284 5.4043954 21.1557967 5.43995528 21.0742407 5.48539289 21.0371699 5.56243929 21.0519982 5.6543023 21.0689449 5.76295747 21.1557967 5.88544148 21.2765418 5.98817001 21.0170457 5.85482048 20.8549929 5.64343678 20.7840287 5.53379384L20.7850879 5.53280605C20.6166801 4.85900289 20.4938166 3.28251511 20.4938166 3.28251511zM22.7288126 5.65921296C22.7669426 5.75601483 22.7584693 5.83898786 22.7044517 5.90615652 22.5826474 6.05827376 22.2340298 6.13235685 21.7660288 6.10865025 21.9385219 5.73625935 22.2490094 5.52882674 22.4852039 5.51993677 22.5699374 5.51697346 22.6800909 5.53870448 22.7288126 5.65921296zM31.5901002 10.9647039C31.8199397 11.5949039 30.4525537 12.0680478 30.5447013 13.1004131 30.6368489 14.1326372 29.0691289 14.6482554 28.4389239 15.5946843 27.8087189 16.5399843 26.3947295 15.4801025 24.9043287 15.8811388 23.4140792 16.2821752 22.5381472 15.035604 21.5540287 15.0641084 20.5700616 15.0927538 20.0627201 14.5475024 20.0627201 14.5475024 20.5700616 14.0467009 20.3243346 12.1115099 20.0478917 9.89000549 19.8085198 7.96963114 20.5340499 6.11360323 20.7342327 5.64539823 20.8657208 5.8310998 21.1504857 6.13730982 21.6175788 6.19657629 21.6112238 6.21435622 21.6048688 6.23312393 21.5985138 6.25287943 21.4809462 6.63712361 21.2013258 6.93641924 20.9545396 7.20015496 20.7247001 7.44611076 20.5266357 7.65749447 20.5075707 7.88468256L20.6124283 7.89258475C20.629375 7.69813432 20.8168478 7.49747504 21.0339772 7.26534807 21.2712309 7.01149008 21.5381412 6.72602331 21.6749252 6.35857127 21.8073212 6.82776406 22.2839469 7.20311829 22.7457441 7.56563146 23.1386955 7.87579258 23.5104635 8.16831489 23.646037 8.49526818L23.7445397 8.45970831C23.5994336 8.10904843 23.2181331 7.80862395 22.8135309 7.49056061 22.3263136 7.10730419 21.8232088 6.7112067 21.7520932 6.21830731 22.8495426 6.4612998 23.7678413 5.93481609 24.0771184 5.72442017 27.2950223 5.06162362 29.0173809 7.66243335 29.8382362 8.42795843 30.6675648 9.2015268 31.6165794 8.65712207 31.6165794 8.65712207 32.042365 9.37339953 31.3592016 10.3345039 31.5901002 10.9647039zM21.3359158 5.53670071C21.4587793 5.59695494 21.5964711 5.77179101 21.6324828 6.08392768 21.3846375 5.99404022 21.1780997 5.78463206 21.1569164 5.64041703 21.148443 5.5870772 21.1664489 5.54954178 21.2109339 5.52385964 21.2225848 5.517933 21.236354 5.51398191 21.2522415 5.51398191 21.2766024 5.51398191 21.3051999 5.52188409 21.3359158 5.53670071zM40.4938166 3.28251511C40.4938166 3.28251511 40.2057229 3.05631478 40.1591195 2.61181635 40.2671547 2.16731792 41.0933058 1.6485953 41.0933058 1.6485953 40.3857815 1.57662889 40.8466709 1.29003323 40.6166801 1.18942137 40.3857815 1.08951505 40.7088278.702307526 40.5700767.572909094 40.4323849.444498433 40.7088278 0 40.7088278 0 40.8466709.272625707 41.630304 0 41.9385219 0 42.2458319 0 42.876037.315100001 42.876037.315100001 42.1229684.974933233 42.1568618 2.55551321 42.1568618 2.55551321 44.0464177 2.03989504 45.1968255.917642322 45.1968255.917642322 45.565416 1.07469844 45.949894 1.46204707 45.949894 1.46204707 46.1647538 1.82060914 46.6256432 2.58020759 46.7336784 3.15311667 46.8406544 3.72701355 47.4253151 3.74084238 47.4253151 3.74084238 47.3331675 4.11323328 46.9635179 3.82677875 46.6563591 4.14187875 46.3492004 4.45810763 46.0875859 3.95617718 45.949894 4.28609378 45.811143 4.61502264 45.3502536 4.48661197 45.3502536 4.48661197 45.3957978 4.02729693 44.9816631 3.65490601 44.9816631 3.65490601 44.1639853 4.30683706 44.0019326 5.38153548 43.9722759 5.67307001 43.7043064 5.84889384 43.0910481 6.18276156 42.3295062 6.18276156 42.5466357 6.14423835 42.7044517 6.07114305 42.7891852 5.96545121 42.8654453 5.87062486 42.8792144 5.75307974 42.8273152 5.62466906 42.7732976 5.48934399 42.6461975 5.41413205 42.4809673 5.42118757 42.2340298 5.43007754 41.918549 5.62255242 41.7215437 5.97039009 41.6632895 5.68294775 41.516973 5.51389725 41.384577 5.44884526 41.3009027 5.40820538 41.2172284 5.4043954 41.1557967 5.43995528 41.0742407 5.48539289 41.0371699 5.56243929 41.0519982 5.6543023 41.0689449 5.76295747 41.1557967 5.88544148 41.2765418 5.98817001 41.0170457 5.85482048 40.8549929 5.64343678 40.7840287 5.53379384L40.7850879 5.53280605C40.6166801 4.85900289 40.4938166 3.28251511 40.4938166 3.28251511zM42.7288126 5.65921296C42.7669426 5.75601483 42.7584693 5.83898786 42.7044517 5.90615652 42.5826474 6.05827376 42.2340298 6.13235685 41.7660288 6.10865025 41.9385219 5.73625935 42.2490094 5.52882674 42.4852039 5.51993677 42.5699374 5.51697346 42.6800909 5.53870448 42.7288126 5.65921296zM51.5901002 10.9647039C51.8199397 11.5949039 50.4525537 12.0680478 50.5447013 13.1004131 50.6368489 14.1326372 49.0691289 14.6482554 48.4389239 15.5946843 47.8087189 16.5399843 46.3947295 15.4801025 44.9043287 15.8811388 43.4140792 16.2821752 42.5381472 15.035604 41.5540287 15.0641084 40.5700616 15.0927538 40.0627201 14.5475024 40.0627201 14.5475024 40.5700616 14.0467009 40.3243346 12.1115099 40.0478917 9.89000549 39.8085198 7.96963114 40.5340499 6.11360323 40.7342327 5.64539823 40.8657208 5.8310998 41.1504857 6.13730982 41.6175788 6.19657629 41.6112238 6.21435622 41.6048688 6.23312393 41.5985138 6.25287943 41.4809462 6.63712361 41.2013258 6.93641924 40.9545396 7.20015496 40.7247001 7.44611076 40.5266357 7.65749447 40.5075707 7.88468256L40.6124283 7.89258475C40.629375 7.69813432 40.8168478 7.49747504 41.0339772 7.26534807 41.2712309 7.01149008 41.5381412 6.72602331 41.6749252 6.35857127 41.8073212 6.82776406 42.2839469 7.20311829 42.7457441 7.56563146 43.1386955 7.87579258 43.5104635 8.16831489 43.646037 8.49526818L43.7445397 8.45970831C43.5994336 8.10904843 43.2181331 7.80862395 42.8135309 7.49056061 42.3263136 7.10730419 41.8232088 6.7112067 41.7520932 6.21830731 42.8495426 6.4612998 43.7678413 5.93481609 44.0771184 5.72442017 47.2950223 5.06162362 49.0173809 7.66243335 49.8382362 8.42795843 50.6675648 9.2015268 51.6165794 8.65712207 51.6165794 8.65712207 52.042365 9.37339953 51.3592016 10.3345039 51.5901002 10.9647039zM41.3359158 5.53670071C41.4587793 5.59695494 41.5964711 5.77179101 41.6324828 6.08392768 41.3846375 5.99404022 41.1780997 5.78463206 41.1569164 5.64041703 41.148443 5.5870772 41.1664489 5.54954178 41.2109339 5.52385964 41.2225848 5.517933 41.236354 5.51398191 41.2522415 5.51398191 41.2766024 5.51398191 41.3051999 5.52188409 41.3359158 5.53670071zM60.4938166 3.28251511C60.4938166 3.28251511 60.2057229 3.05631478 60.1591195 2.61181635 60.2671547 2.16731792 61.0933058 1.6485953 61.0933058 1.6485953 60.3857815 1.57662889 60.8466709 1.29003323 60.6166801 1.18942137 60.3857815 1.08951505 60.7088278.702307526 60.5700767.572909094 60.4323849.444498433 60.7088278 0 60.7088278 0 60.8466709.272625707 61.630304 0 61.9385219 0 62.2458319 0 62.876037.315100001 62.876037.315100001 62.1229684.974933233 62.1568618 2.55551321 62.1568618 2.55551321 64.0464177 2.03989504 65.1968255.917642322 65.1968255.917642322 65.565416 1.07469844 65.949894 1.46204707 65.949894 1.46204707 66.1647538 1.82060914 66.6256432 2.58020759 66.7336784 3.15311667 66.8406544 3.72701355 67.4253151 3.74084238 67.4253151 3.74084238 67.3331675 4.11323328 66.9635179 3.82677875 66.6563591 4.14187875 66.3492004 4.45810763 66.0875859 3.95617718 65.949894 4.28609378 65.811143 4.61502264 65.3502536 4.48661197 65.3502536 4.48661197 65.3957978 4.02729693 64.9816631 3.65490601 64.9816631 3.65490601 64.1639853 4.30683706 64.0019326 5.38153548 63.9722759 5.67307001 63.7043064 5.84889384 63.0910481 6.18276156 62.3295062 6.18276156 62.5466357 6.14423835 62.7044517 6.07114305 62.7891852 5.96545121 62.8654453 5.87062486 62.8792144 5.75307974 62.8273152 5.62466906 62.7732976 5.48934399 62.6461975 5.41413205 62.4809673 5.42118757 62.2340298 5.43007754 61.918549 5.62255242 61.7215437 5.97039009 61.6632895 5.68294775 61.516973 5.51389725 61.384577 5.44884526 61.3009027 5.40820538 61.2172284 5.4043954 61.1557967 5.43995528 61.0742407 5.48539289 61.0371699 5.56243929 61.0519982 5.6543023 61.0689449 5.76295747 61.1557967 5.88544148 61.2765418 5.98817001 61.0170457 5.85482048 60.8549929 5.64343678 60.7840287 5.53379384L60.7850879 5.53280605C60.6166801 4.85900289 60.4938166 3.28251511 60.4938166 3.28251511zM62.7288126 5.65921296C62.7669426 5.75601483 62.7584693 5.83898786 62.7044517 5.90615652 62.5826474 6.05827376 62.2340298 6.13235685 61.7660288 6.10865025 61.9385219 5.73625935 62.2490094 5.52882674 62.4852039 5.51993677 62.5699374 5.51697346 62.6800909 5.53870448 62.7288126 5.65921296zM71.5901002 10.9647039C71.8199397 11.5949039 70.4525537 12.0680478 70.5447013 13.1004131 70.6368489 14.1326372 69.0691289 14.6482554 68.4389239 15.5946843 67.8087189 16.5399843 66.3947295 15.4801025 64.9043287 15.8811388 63.4140792 16.2821752 62.5381472 15.035604 61.5540287 15.0641084 60.5700616 15.0927538 60.0627201 14.5475024 60.0627201 14.5475024 60.5700616 14.0467009 60.3243346 12.1115099 60.0478917 9.89000549 59.8085198 7.96963114 60.5340499 6.11360323 60.7342327 5.64539823 60.8657208 5.8310998 61.1504857 6.13730982 61.6175788 6.19657629 61.6112238 6.21435622 61.6048688 6.23312393 61.5985138 6.25287943 61.4809462 6.63712361 61.2013258 6.93641924 60.9545396 7.20015496 60.7247001 7.44611076 60.5266357 7.65749447 60.5075707 7.88468256L60.6124283 7.89258475C60.629375 7.69813432 60.8168478 7.49747504 61.0339772 7.26534807 61.2712309 7.01149008 61.5381412 6.72602331 61.6749252 6.35857127 61.8073212 6.82776406 62.2839469 7.20311829 62.7457441 7.56563146 63.1386955 7.87579258 63.5104635 8.16831489 63.646037 8.49526818L63.7445397 8.45970831C63.5994336 8.10904843 63.2181331 7.80862395 62.8135309 7.49056061 62.3263136 7.10730419 61.8232088 6.7112067 61.7520932 6.21830731 62.8495426 6.4612998 63.7678413 5.93481609 64.0771184 5.72442017 67.2950223 5.06162362 69.0173809 7.66243335 69.8382362 8.42795843 70.6675648 9.2015268 71.6165794 8.65712207 71.6165794 8.65712207 72.042365 9.37339953 71.3592016 10.3345039 71.5901002 10.9647039zM61.3359158 5.53670071C61.4587793 5.59695494 61.5964711 5.77179101 61.6324828 6.08392768 61.3846375 5.99404022 61.1780997 5.78463206 61.1569164 5.64041703 61.148443 5.5870772 61.1664489 5.54954178 61.2109339 5.52385964 61.2225848 5.517933 61.236354 5.51398191 61.2522415 5.51398191 61.2766024 5.51398191 61.3051999 5.52188409 61.3359158 5.53670071zM80.4938166 3.28251511C80.4938166 3.28251511 80.2057229 3.05631478 80.1591195 2.61181635 80.2671547 2.16731792 81.0933058 1.6485953 81.0933058 1.6485953 80.3857815 1.57662889 80.8466709 1.29003323 80.6166801 1.18942137 80.3857815 1.08951505 80.7088278.702307526 80.5700767.572909094 80.4323849.444498433 80.7088278 0 80.7088278 0 80.8466709.272625707 81.630304 0 81.9385219 0 82.2458319 0 82.876037.315100001 82.876037.315100001 82.1229684.974933233 82.1568618 2.55551321 82.1568618 2.55551321 84.0464177 2.03989504 85.1968255.917642322 85.1968255.917642322 85.565416 1.07469844 85.949894 1.46204707 85.949894 1.46204707 86.1647538 1.82060914 86.6256432 2.58020759 86.7336784 3.15311667 86.8406544 3.72701355 87.4253151 3.74084238 87.4253151 3.74084238 87.3331675 4.11323328 86.9635179 3.82677875 86.6563591 4.14187875 86.3492004 4.45810763 86.0875859 3.95617718 85.949894 4.28609378 85.811143 4.61502264 85.3502536 4.48661197 85.3502536 4.48661197 85.3957978 4.02729693 84.9816631 3.65490601 84.9816631 3.65490601 84.1639853 4.30683706 84.0019326 5.38153548 83.9722759 5.67307001 83.7043064 5.84889384 83.0910481 6.18276156 82.3295062 6.18276156 82.5466357 6.14423835 82.7044517 6.07114305 82.7891852 5.96545121 82.8654453 5.87062486 82.8792144 5.75307974 82.8273152 5.62466906 82.7732976 5.48934399 82.6461975 5.41413205 82.4809673 5.42118757 82.2340298 5.43007754 81.918549 5.62255242 81.7215437 5.97039009 81.6632895 5.68294775 81.516973 5.51389725 81.384577 5.44884526 81.3009027 5.40820538 81.2172284 5.4043954 81.1557967 5.43995528 81.0742407 5.48539289 81.0371699 5.56243929 81.0519982 5.6543023 81.0689449 5.76295747 81.1557967 5.88544148 81.2765418 5.98817001 81.0170457 5.85482048 80.8549929 5.64343678 80.7840287 5.53379384L80.7850879 5.53280605C80.6166801 4.85900289 80.4938166 3.28251511 80.4938166 3.28251511zM82.7288126 5.65921296C82.7669426 5.75601483 82.7584693 5.83898786 82.7044517 5.90615652 82.5826474 6.05827376 82.2340298 6.13235685 81.7660288 6.10865025 81.9385219 5.73625935 82.2490094 5.52882674 82.4852039 5.51993677 82.5699374 5.51697346 82.6800909 5.53870448 82.7288126 5.65921296zM91.5901002 10.9647039C91.8199397 11.5949039 90.4525537 12.0680478 90.5447013 13.1004131 90.6368489 14.1326372 89.0691289 14.6482554 88.4389239 15.5946843 87.8087189 16.5399843 86.3947295 15.4801025 84.9043287 15.8811388 83.4140792 16.2821752 82.5381472 15.035604 81.5540287 15.0641084 80.5700616 15.0927538 80.0627201 14.5475024 80.0627201 14.5475024 80.5700616 14.0467009 80.3243346 12.1115099 80.0478917 9.89000549 79.8085198 7.96963114 80.5340499 6.11360323 80.7342327 5.64539823 80.8657208 5.8310998 81.1504857 6.13730982 81.6175788 6.19657629 81.6112238 6.21435622 81.6048688 6.23312393 81.5985138 6.25287943 81.4809462 6.63712361 81.2013258 6.93641924 80.9545396 7.20015496 80.7247001 7.44611076 80.5266357 7.65749447 80.5075707 7.88468256L80.6124283 7.89258475C80.629375 7.69813432 80.8168478 7.49747504 81.0339772 7.26534807 81.2712309 7.01149008 81.5381412 6.72602331 81.6749252 6.35857127 81.8073212 6.82776406 82.2839469 7.20311829 82.7457441 7.56563146 83.1386955 7.87579258 83.5104635 8.16831489 83.646037 8.49526818L83.7445397 8.45970831C83.5994336 8.10904843 83.2181331 7.80862395 82.8135309 7.49056061 82.3263136 7.10730419 81.8232088 6.7112067 81.7520932 6.21830731 82.8495426 6.4612998 83.7678413 5.93481609 84.0771184 5.72442017 87.2950223 5.06162362 89.0173809 7.66243335 89.8382362 8.42795843 90.6675648 9.2015268 91.6165794 8.65712207 91.6165794 8.65712207 92.042365 9.37339953 91.3592016 10.3345039 91.5901002 10.9647039zM81.3359158 5.53670071C81.4587793 5.59695494 81.5964711 5.77179101 81.6324828 6.08392768 81.3846375 5.99404022 81.1780997 5.78463206 81.1569164 5.64041703 81.148443 5.5870772 81.1664489 5.54954178 81.2109339 5.52385964 81.2225848 5.517933 81.236354 5.51398191 81.2522415 5.51398191 81.2766024 5.51398191 81.3051999 5.52188409 81.3359158 5.53670071z"/>
  </g>
</svg>
